<?xml version="1.0" encoding="UTF-8" standalone="no"?>
<!-- Created with Inkscape (http://www.inkscape.org/) -->

<svg
   width="13.00252mm"
   height="13.515406mm"
   viewBox="0 0 13.00252 13.515405"
   version="1.1"
   id="svg1"
   xmlns="http://www.w3.org/2000/svg"
   xmlns:svg="http://www.w3.org/2000/svg">
  <defs
     id="defs1" />
  <g
     id="layer1"
     transform="translate(-2.3393801,-4.2630789)">
    <g
       id="g2"
       transform="matrix(0.2240655,0,0,0.2240655,2.206412,4.0726698)">
      <title
         id="title2">Layer 1</title>
      <g
         id="svg_1">
        <g
           id="svg_2">
          <g
             id="svg_3" />
          <g
             id="svg_9" />
        </g>
        <g
           id="svg_14">
          <path
             id="svg_15"
             d="m 27.570435,0.850792 c 17.564,0 31.053,12.082 31.053,30.013 0,18.027 -13.489,30.305 -31.053,30.305 h -19.698 c -3.979,0 -7.279,-2.631 -7.279,-7.21 v -45.606 c 0,-4.58 3.3,-7.503 7.279,-7.503 h 19.698 z"
             class="st0"
             style="fill:#ff6900" />
          <path
             id="svg_16"
             d="m 14.298435,32.454792 c 0,-5.555 -1.778,-10.606 -1.194,-13.77 l -0.142,-0.183 c -2.023,2.111 -3.339,1.553 -3.482,0.873 -0.288,-1.361 2.08,-3.027 3.433,-3.606 0.026,-0.089 0.061,-0.182 0.098,-0.276 -1.266,0.195 -2.753,0.035 -2.805,-0.871 -0.061,-1.074 2.095,-2.033 4.913,-1.795 0.053,-0.045 0.108,-0.09 0.163,-0.135 -0.177,-0.071 -0.367,-0.159 -0.604,-0.281 -0.728,-0.375 -0.905,-0.998 -0.667,-1.451 0.261,-0.498 1.058,-0.692 1.704,-0.678 1.014,0.021 1.877,0.267 2.508,0.523 0.071,-0.03 0.143,-0.06 0.211,-0.086 -0.234,-0.183 -0.438,-0.382 -0.557,-0.586 -0.174,-0.299 -0.217,-0.71 0.12,-0.976 0.394,-0.311 1.394,-0.421 2.298,0.4 0.187,0.169 0.345,0.334 0.488,0.492 0.101,-0.019 0.202,-0.039 0.304,-0.055 -0.149,-0.23 -0.268,-0.47 -0.306,-0.693 -0.053,-0.305 0.047,-0.633 0.405,-0.749 0.391,-0.127 0.886,0.074 1.143,0.455 0.275,0.408 0.444,0.91 0.55,1.267 -1.993,0.232 -7.279,1.439 -7.279,7.828 0,6.23 5.176,12.775 5.176,22.432 -0.008,3.509 -0.782,7.029 -3.963,11.129 -2.456,3.166 -6.358,6.221 -12.442,8.729 1.043,0.509 2.237,0.777 3.501,0.777 h 2.187 c 5.033,-2.788 7.531,-5.344 9.262,-7.742 3.375,1.504 6.622,2.15 9.548,2.15 5.486,0 10.162,-2.527 12.6,-7.034 2.509,-1.506 4.173,-4.602 4.278,-6.814 1.563,-1.966 1.852,-4.448 1.372,-6.123 -0.115,-0.399 -0.439,-0.411 -1.001,-0.069 -4.943,2.964 -9.73,4.375 -14.298,4.375 -2.77,0 -5.611,-0.44 -8.634,-1.315 -0.216,-3.24 -0.881,-5.957 -1.129,-7.604 -0.353,-2.175 0.149,-3.784 2.536,-3.784 1.751,0 4.991,0.445 7.58,1.622 2.564,1.166 4.09,3.461 5.156,3.461 0.433,0 0.888,-0.269 0.888,-1.185 0,-1.856 -0.662,-4.844 -1.485,-5.909 2.399,-0.137 4.305,-0.112 5.377,0.009 2.234,0.388 2.339,1.509 2.779,2.24 0.44,0.731 1.186,1.049 2.083,1.049 1.661,0 2.697,-0.857 2.697,-3.95 0,-6.794 -4.289,-10.087 -8.787,-10.087 -3.693,0 -5.119,0.812 -8.626,0.812 -2.488,0 -4.549,-5.062 -7.376,-5.727 -1.249,-2.777 -4.049,-3.09 -5.774,-1.695 -1.566,-0.953 -4.015,-0.439 -4.116,1.32 -1.802,-0.558 -4.129,0.414 -3.126,2.782 -4.406,0.125 -5.228,4.021 -2.238,4.456 -3.849,2.178 -2.09,5.94 1.14,5.14 0.228,2.672 1.311,6.986 1.311,9.965 0,4.143 -1.879,5.105 -4.448,5.105 -2.03,0 -5.01,-0.737 -7.029,-1.313 v 2.889 c 2.043,0.508 5.107,1.16 7.406,1.16 4.047,10e-4 6.293,-2.374 6.293,-6.898 z m 8.927,9.385 c 2.773,0.77 6.606,1.181 9.786,0.958 5.589,-0.392 9.785,-2.473 12.147,-3.988 -1.419,3.584 -6.741,5.81 -11.901,6.44 -0.033,0.261 -0.072,0.516 -0.119,0.762 3.871,-0.206 7.547,-1.464 9.213,-2.613 -0.953,3.525 -5.688,4.942 -9.986,5.146 -0.121,0.277 -0.249,0.538 -0.381,0.786 2.503,0.045 4.9,-0.419 6.328,-0.869 -1.285,2.453 -5.72,4.391 -10.237,4.391 -2.22,0 -4.99,-0.433 -7.394,-1.577 1.737,-3.178 2.406,-6.435 2.544,-9.436 z m 11.18,-19.872 c 0.609,-1.815 1.138,-3.184 2.126,-4.228 1.041,-1.1 2.197,-1.444 4.735,-1.444 3.505,0 6.433,3.543 6.433,8.495 0,0.736 -0.988,0.731 -1.305,0.058 -1.192,-2.105 -2.807,-2.408 -5.351,-2.595 -1.877,-0.11 -4.141,0.049 -6.203,0.137 -0.385,0.02 -0.493,-0.249 -0.435,-0.423 z" />
          <path
             id="svg_17"
             d="m 0.593435,47.003792 c 2.118,-0.421 4.202,-0.811 4.202,-0.811 l 0.266,-1.142 c -0.956,-0.048 -2.852,-0.026 -4.468,0.018 z" />
          <path
             id="svg_18"
             d="m 23.420435,12.905792 c 0.74,-0.249 1.803,0.481 2.372,1.625 0.569,1.144 0.429,2.278 -0.311,2.522 -0.734,0.26 -1.792,-0.47 -2.364,-1.62 -0.077,-0.155 -0.138,-0.309 -0.189,-0.461 l 0.129,-0.036 c 0.237,0.225 0.52,0.287 0.709,0.166 0.26,-0.171 0.233,-0.625 0.013,-1.017 -0.157,-0.321 -0.52,-0.657 -0.82,-0.632 l -0.052,-0.068 c 0.112,-0.229 0.282,-0.399 0.513,-0.479 m 5.187,11.512 c -3.314,-0.728 -6.941,-1.69 -8.875,-4.533 -0.036,-0.053 -0.102,-0.077 -0.164,-0.059 -0.061,0.017 -0.105,0.073 -0.108,0.137 -0.007,0.155 0.014,0.325 0.049,0.494 l -0.262,0.099 c -0.51,-0.718 -0.614,-1.59 -0.108,-2.217 0.728,-0.902 2.205,-0.81 3.087,-0.253 l -0.112,0.243 c -0.473,-0.079 -0.924,-0.079 -1.276,0.135 -0.299,0.182 -0.34,0.452 -0.156,0.794 1.606,2.985 6.276,3.633 11.825,3.201 0.573,-0.045 0.705,-0.303 0.779,-0.579 0.482,-1.922 1.356,-3.636 2.657,-4.942 -1.012,0.142 -1.953,0.174 -2.774,0.219 -2.866,0.181 -4.505,-0.195 -5.017,-0.604 l 0.093,-0.249 c 0.305,0.105 0.622,0.129 0.687,0.039 0.089,-0.121 0.021,-0.197 -0.119,-0.32 -0.544,-0.51 -2.989,-3.016 -2.984,-3.002 -0.264,-2.119 -3.35,-2.196 -4.58,-0.111 l -0.418,-0.112 c 0.122,-0.457 0.305,-0.83 0.475,-1.101 -2.577,0.582 -4.043,2.895 -4.309,5.129 -1.142,9.603 13.422,7.384 17.585,11.23 0.079,0.062 0.277,0.344 0.419,0.166 0.162,-0.523 -1.672,-2.759 -6.394,-3.804"
             class="st1"
             style="fill:#ffffff" />
          <path
             id="svg_19"
             d="m 45.154435,38.803792 c -2.361,1.514 -6.561,3.598 -12.147,3.99 -3.178,0.223 -7.016,-0.19 -9.787,-0.96 -0.043,0.924 -0.136,1.878 -0.295,2.841 1.562,0.401 4.343,0.931 8.355,1.045 -0.179,1.079 -1.274,4.74 -4.078,7.107 5.111,0.214 9.742,-1.773 11.104,-4.371 -1.428,0.45 -3.826,0.914 -6.328,0.869 0.132,-0.247 0.26,-0.509 0.381,-0.786 4.296,-0.203 9.033,-1.623 9.986,-5.146 -1.666,1.148 -5.345,2.407 -9.213,2.613 0.047,-0.246 0.086,-0.5 0.119,-0.762 5.159,-0.629 10.485,-2.859 11.903,-6.44 z"
             class="st1"
             style="fill:#ffffff" />
        </g>
      </g>
    </g>
  </g>
</svg>
