<?xml version="1.0" encoding="UTF-8" standalone="no"?>
<svg
   width="24.470402"
   height="16.071667"
   viewBox="0 0 24.470402 16.071667"
   fill="none"
   version="1.1"
   id="svg3"
   xml:space="preserve"
   xmlns="http://www.w3.org/2000/svg"
   xmlns:svg="http://www.w3.org/2000/svg"><defs
     id="defs3" /><path
     style="fill:#ee7700;fill-opacity:1;stroke-width:0.0285305"
     d="M 11.165488,16.056054 C 8.3586533,15.84415 5.7233569,14.706408 3.9615525,12.945882 3.6457416,12.630303 3.1452483,12.040835 3.1711355,12.014948 c 0.00837,-0.0084 0.1312428,-0.0061 0.2730297,0.0049 l 0.2577939,0.02017 0.1261138,0.16048 c 0.2061394,0.262318 0.8078766,0.847362 1.1757192,1.143102 1.3290511,1.068545 3.004809,1.814377 4.8758635,2.170106 1.2685274,0.241176 2.7329374,0.276061 4.0960844,0.09757 2.096307,-0.27444 4.081509,-1.108109 5.591839,-2.348204 0.325093,-0.266924 0.860502,-0.794331 1.073446,-1.057396 l 0.133412,-0.164817 0.257284,-0.01826 c 0.141507,-0.01006 0.262657,-0.01288 0.269225,-0.0063 0.02542,0.02542 -0.436029,0.570664 -0.755656,0.892897 -1.351005,1.362019 -3.209777,2.363918 -5.25525,2.832642 -1.088493,0.24943 -1.660393,0.315092 -2.854947,0.327786 -0.525673,0.0055 -1.096994,-4.72e-4 -1.269605,-0.01354 z m 0.128389,-0.761745 c -0.243752,-0.01829 -0.899457,-0.09746 -1.141221,-0.13778 -0.2229134,-0.03718 -0.2502004,-0.04917 -0.3376924,-0.148379 -0.167884,-0.190375 -0.4989446,-0.636004 -0.48376,-0.651185 0.043976,-0.04399 1.4517514,-0.146039 2.2193724,-0.160896 l 0.470679,-0.0092 0.0043,0.563476 0.0043,0.563478 -0.303614,-0.005 c -0.166979,-0.0027 -0.361381,-0.0093 -0.431993,-0.01457 z m 1.233323,-0.539415 0.0077,-0.567936 0.3709,0.0084 c 0.691135,0.01563 2.196656,0.124568 2.233727,0.16164 0.0097,0.0097 -0.336791,0.467977 -0.513265,0.678774 -0.04791,0.05722 -0.108193,0.08637 -0.222613,0.107651 -0.324087,0.06025 -1.084166,0.143055 -1.477071,0.160917 l -0.407176,0.01851 z M 8.9829077,14.90937 C 8.7698944,14.85592 7.9558094,14.589564 7.9558094,14.573317 c 0,-0.01817 0.4398285,-0.104769 0.656199,-0.129199 l 0.1283886,-0.0145 0.1793682,0.246131 c 0.098655,0.135372 0.1756893,0.248953 0.1711863,0.252401 -0.00449,0.0034 -0.053121,-0.0051 -0.1080442,-0.0188 z m 6.3908263,0.01604 c 0,-0.01299 0.295924,-0.425022 0.341971,-0.476149 0.02094,-0.02327 0.66585,0.08389 0.739129,0.12283 0.02477,0.01317 -0.09335,0.06508 -0.313836,0.137895 -0.408245,0.134838 -0.767264,0.23564 -0.767264,0.215424 z m 1.711827,-0.725386 c -0.101999,-0.0298 -0.370087,-0.09264 -0.595765,-0.139623 -0.225672,-0.04698 -0.41577,-0.09089 -0.422441,-0.09756 -0.0067,-0.0067 0.115664,-0.224639 0.27185,-0.484374 0.156185,-0.259736 0.368507,-0.638487 0.471824,-0.841669 l 0.187848,-0.369423 0.278718,-0.01691 c 0.153297,-0.0093 0.445625,-0.02384 0.649618,-0.0323 0.203993,-0.0085 0.460766,-0.02128 0.570608,-0.02848 0.109844,-0.0072 0.340942,-0.02047 0.51355,-0.02947 0.17261,-0.009 0.480741,-0.02847 0.684734,-0.04324 0.203988,-0.01477 0.428671,-0.02642 0.499283,-0.02587 l 0.128384,10e-4 -0.357213,0.34844 c -0.533821,0.52071 -1.021405,0.897448 -1.661553,1.283814 -0.330814,0.199666 -0.968785,0.535506 -1.010436,0.531912 -0.01296,-0.0011 -0.107006,-0.02642 -0.209009,-0.05623 z M 6.75753,14.05572 C 5.8094372,13.555573 5.0493417,13.0017 4.3759016,12.320247 l -0.2275753,-0.230281 0.1847777,6.81e-4 c 0.1016292,3.83e-4 0.3388473,0.01221 0.5271454,0.02633 0.1883021,0.01413 0.5092687,0.0334 0.7132624,0.04282 0.2039931,0.0094 0.4350887,0.02283 0.5135487,0.02978 0.07846,0.007 0.3544912,0.01985 0.6134061,0.02863 0.2589142,0.0088 0.5356453,0.02265 0.614951,0.03082 l 0.1442,0.01485 0.1081334,0.219754 c 0.1411642,0.286882 0.4845106,0.895051 0.6861048,1.2153 0.087853,0.139563 0.1562331,0.25635 0.1519526,0.259527 -0.00428,0.0032 -0.1554219,0.03437 -0.3358763,0.06933 -0.1804591,0.03496 -0.4523985,0.0947 -0.604313,0.132768 -0.1519144,0.03806 -0.2995612,0.069 -0.3280971,0.06874 C 7.108974,14.229009 6.9379843,14.150936 6.75753,14.055739 Z M 8.8011482,13.609863 C 8.5301527,13.192195 8.0321357,12.308508 8.0548803,12.285665 c 0.00565,-0.0057 0.3033784,-6.8e-4 0.6616989,0.01119 0.358316,0.01177 1.2458084,0.03102 1.9721948,0.0428 l 1.320709,0.02141 3e-5,0.6562 5.6e-5,0.656202 -0.23659,0.0063 c -0.926281,0.02466 -2.4738186,0.134685 -2.7263018,0.19384 -0.056,0.01312 -0.088729,-0.02203 -0.2455249,-0.263682 z m 6.4299348,0.247808 c -0.150528,-0.02263 -0.908858,-0.0937 -1.326668,-0.124357 -0.109843,-0.008 -0.46612,-0.0236 -0.791723,-0.03452 l -0.592004,-0.01987 v -0.666097 -0.666095 h 0.639546 c 0.351752,0 1.219654,-0.01369 1.928667,-0.03043 0.709017,-0.01674 1.29602,-0.02352 1.304456,-0.01509 0.02177,0.02175 -0.353732,0.700044 -0.649051,1.172469 -0.16745,0.26787 -0.267248,0.400767 -0.303,0.403494 -0.02933,0.0023 -0.123919,-0.0066 -0.210223,-0.01952 z m -3.801748,-2.092568 c -0.16533,-0.06077 -0.285849,-0.167398 -0.378699,-0.335041 -0.150128,-0.271055 -0.162054,-0.154869 0.485747,-4.7323564 0.101039,-0.713977 0.248891,-1.766752 0.328553,-2.339501 0.07967,-0.572749 0.151129,-1.071127 0.158818,-1.107505 l 0.014,-0.06614 0.45311,0.009 c 0.452321,0.009 0.453335,0.0093 0.576289,0.09574 0.153532,0.108013 0.240462,0.235029 0.300702,0.439369 0.04345,0.147354 0.04337,0.186271 -8.85e-4,0.543872 -0.02623,0.211839 -0.04764,0.40121 -0.04754,0.420825 9.5e-5,0.02768 0.180559,0.0357 0.806152,0.03583 0.493707,8.6e-5 0.850203,0.01224 0.920106,0.03133 0.239519,0.06543 0.445895,0.296969 0.501452,0.562602 0.03936,0.18823 0.0434,0.150564 -0.205419,1.916589 -0.35681,2.532436 -0.563202,3.8237744 -0.636872,3.9846824 -0.09308,0.203325 -0.298544,0.416472 -0.480445,0.498419 -0.148058,0.0667 -0.154661,0.06704 -1.418355,0.07429 -1.022316,0.0059 -1.29046,-3.83e-4 -1.376656,-0.03207 z m 2.044142,-1.652208 c 0.03692,-0.1969154 0.530795,-3.6831004 0.530795,-3.7468324 v -0.06779 h -0.456489 c -0.251068,0 -0.456555,0.0032 -0.456637,0.0071 -8.6e-5,0.0038 -0.122051,0.866601 -0.271043,1.917063 -0.148986,1.05046 -0.270905,1.9299124 -0.270926,1.9543364 -2.6e-5,0.03869 0.05842,0.04332 0.453562,0.03594 l 0.453605,-0.0085 z M 8.0984597,11.731431 C 7.0072871,11.693558 6.9745912,11.687749 6.7765093,11.496565 6.4961551,11.225977 6.4843153,11.078299 6.6422353,9.8217926 6.8656676,8.0440406 7.2169346,5.6604796 7.288268,5.4380986 7.38357,5.1409866 7.6343194,4.8815976 7.9035116,4.8016566 c 0.1974124,-0.05862 2.5848664,-0.09801 2.7446544,-0.04526 0.220943,0.07292 0.386642,0.28267 0.447508,0.566491 0.02597,0.121139 -0.0012,0.360662 -0.211793,1.848291 -0.132901,0.940016 -0.300927,2.158473 -0.37339,2.707685 -0.07246,0.5492124 -0.150789,1.0819454 -0.174057,1.1838524 -0.05406,0.236791 -0.202341,0.462022 -0.3771424,0.572879 -0.249015,0.157921 -0.177849,0.154255 -1.8608319,0.09584 z M 9.0055448,10.120012 C 9.0354268,9.8702666 9.2923,7.9886886 9.3979952,7.2451886 c 0.069844,-0.491318 0.1269888,-0.90563 0.1269888,-0.920693 0,-0.01651 -0.1807722,-0.02578 -0.455657,-0.02335 -0.3942667,0.0035 -0.4575031,0.01028 -0.4693606,0.05052 -0.022063,0.0748 -0.5296307,3.7187364 -0.5299574,3.8045684 -5.58e-5,0.01132 0.1764536,0.02416 0.3922142,0.02854 0.5675946,0.01148 0.533718,0.01552 0.5433216,-0.06474 z m 6.8815532,1.601436 c -0.31071,-0.09671 -0.483004,-0.338359 -0.484206,-0.679137 -3.82e-4,-0.09761 0.0435,-0.457094 0.09743,-0.798854 0.224831,-1.4246164 0.539883,-3.6161514 0.686091,-4.7725634 0.04065,-0.32168 0.08055,-0.615456 0.08861,-0.652831 l 0.01464,-0.06796 0.419334,0.02034 c 0.481101,0.02334 0.590862,0.05772 0.750539,0.234996 0.166781,0.185179 0.207514,0.330297 0.188834,0.672799 -0.02031,0.372287 -0.546716,4.030374 -0.633883,4.4049064 -0.01434,0.06162 -0.01413,0.06164 0.420643,0.04628 0.239248,-0.0085 0.437665,-0.01747 0.440932,-0.02003 0.0076,-0.006 0.148286,-0.8698264 0.278723,-1.7113144 0.05571,-0.35936 0.171456,-1.160054 0.257227,-1.779318 0.170899,-1.233895 0.194132,-1.322502 0.399989,-1.525432 0.05943,-0.05859 0.167111,-0.135616 0.239291,-0.171183 0.122988,-0.0606 0.160779,-0.06412 0.601273,-0.05587 0.25852,0.0049 0.474478,0.01323 0.479913,0.01867 0.03172,0.03172 -0.317218,2.520552 -0.564155,4.023867 -0.355569,2.1646684 -0.367564,2.2097594 -0.659814,2.4803314 -0.261576,0.242174 -0.304365,0.250465 -1.551929,0.300687 -1.283832,0.05168 -1.397182,0.05412 -1.469507,0.03161 z M 5.3394321,11.604424 C 4.9841044,11.579284 4.8254113,11.508324 4.6701697,11.30513 4.5237288,11.113452 4.4917154,10.97551 4.5125545,10.626024 4.5674185,9.7060846 5.0850387,6.2046866 5.5108545,3.8731866 l 0.09119,-0.499284 0.393459,-0.02557 c 0.4519092,-0.02936 0.5616786,-0.009 0.7244632,0.13384 0.1463892,0.128531 0.2175035,0.304409 0.2155157,0.532994 -8.847e-4,0.102362 -0.053693,0.494244 -0.1173424,0.870846 -0.3292133,1.947918 -0.7037018,4.623773 -0.8774291,6.2695744 l -0.050447,0.477885 -0.1298436,-0.0042 c -0.071415,-0.0023 -0.2608598,-0.01349 -0.4209868,-0.02483 z M 2.5492806,11.514054 C 1.7627915,11.472418 0.74981742,11.353535 0.50428029,11.274043 0.03671425,11.122671 -0.06746547,10.782583 0.03719052,9.7492296 c 0.14581829,-1.439816 0.52472826,-3.84786 0.6443503,-4.094964 0.082765,-0.170972 0.36363078,-0.426861 0.57929288,-0.527783 0.1302301,-0.06094 0.2560382,-0.09337 0.4361625,-0.11242 0.8295739,-0.08773 2.3001499,-0.138631 2.4927884,-0.08629 0.2605977,0.07081 0.4576447,0.363432 0.455876,0.677005 -4.294e-4,0.100858 -0.2149067,1.432237 -0.2335211,1.450553 -0.00842,0.0083 -0.910589,0.02231 -1.0567891,0.01642 -0.1044027,-0.0042 -0.2968651,-0.180419 -0.3245816,-0.297181 -0.011888,-0.05012 -0.018673,-0.145703 -0.015026,-0.212391 l 0.0066,-0.121255 H 2.5241848 2.0260223 l -0.01636,0.07846 c -0.038034,0.182503 -0.1945527,1.203719 -0.3268435,2.132654 -0.1999025,1.4037374 -0.1888432,1.290065 -0.1272637,1.308255 0.028718,0.0085 0.2581546,0.02419 0.5098314,0.03489 l 0.4575889,0.01946 0.091623,-0.4958506 c 0.050393,-0.272719 0.091623,-0.516729 0.091623,-0.542246 0,-0.03566 -0.036408,-0.04941 -0.1571389,-0.05943 -0.1147923,-0.0095 -0.1770285,-0.03162 -0.230954,-0.08199 -0.1823054,-0.170308 -0.1945963,-0.300157 -0.088902,-0.939142 l 0.063711,-0.385161 0.8129132,-0.0083 c 0.4471055,-0.0045 0.8541387,-8.85e-4 0.9045269,0.0083 0.119746,0.02154 0.2545139,0.158634 0.272309,0.276999 0.023866,0.158789 -0.3208809,2.7988356 -0.4109192,3.1467086 -0.052679,0.203532 -0.1730188,0.390058 -0.3062072,0.474622 -0.1881606,0.119468 -0.3758449,0.138849 -1.0162578,0.104949 z m 17.7174324,0.007 c -0.114671,-0.0277 -0.246113,-0.09803 -0.305203,-0.16333 -0.08772,-0.09694 -0.164273,-0.306014 -0.165399,-0.451763 -0.0012,-0.147308 0.221441,-1.4687834 0.253085,-1.5026174 0.0098,-0.01051 0.263942,-0.02331 0.564778,-0.02854 0.515941,-0.0089 0.551458,-0.0061 0.625908,0.04932 0.155825,0.116127 0.196906,0.200963 0.192754,0.398031 l -0.0038,0.1816094 0.132218,-0.01214 c 0.07272,-0.0067 0.270299,-0.01997 0.439068,-0.02954 0.283316,-0.01608 0.308002,-0.02213 0.321889,-0.07885 0.0083,-0.03379 0.05106,-0.257229 0.0951,-0.496529 l 0.08005,-0.435088 h -0.866966 c -0.964652,0 -0.948892,0.0027 -1.128591,-0.196162 -0.282599,-0.312808 -0.281603,-0.409612 0.02344,-2.279156 0.06979,-0.427766 0.126903,-0.800089 0.126916,-0.827385 5.6e-5,-0.09881 0.164755,-0.394724 0.272241,-0.489097 0.20644,-0.18126 0.318901,-0.211545 0.768638,-0.206986 0.643663,0.0066 1.603154,0.06297 2.000465,0.117688 0.310397,0.04276 0.576496,0.227999 0.708759,0.493417 0.09373,0.188088 0.09255,0.275698 -0.01287,0.961034 -0.04694,0.305134 -0.08535,0.559819 -0.08535,0.565965 0,0.0061 -0.245576,0.0042 -0.545725,-0.0044 -0.507922,-0.01449 -0.552419,-0.02011 -0.642358,-0.08094 -0.136932,-0.09263 -0.221764,-0.278013 -0.199971,-0.436994 l 0.01713,-0.12482 -0.429998,-0.0086 c -0.236501,-0.0047 -0.434638,-10e-4 -0.440305,0.0083 -0.0104,0.01686 -0.183765,0.963209 -0.183817,1.003195 -1.3e-5,0.01177 0.375507,0.02147 0.83449,0.02155 0.50028,8.6e-5 0.878177,0.01229 0.943525,0.03043 0.05996,0.01665 0.160386,0.07668 0.223179,0.133414 0.165086,0.149145 0.224159,0.282187 0.224159,0.504849 0,0.386928 -0.231654,1.730148 -0.398392,2.3100398 -0.107266,0.373038 -0.365164,0.692714 -0.671504,0.832344 -0.196876,0.08974 -1.02632,0.174109 -2.467885,0.251035 -0.117689,0.0062 -0.252496,0.0021 -0.299569,-0.0093 z M 21.260914,4.3885676 21.028303,4.3724846 20.901284,4.1997076 C 20.126537,3.1458186 18.854433,2.1417666 17.461553,1.4847626 15.871814,0.73490586 14.158959,0.36079386 12.292442,0.35576226 c -0.705928,-0.00192 -0.931134,0.00836 -1.469322,0.067303 -2.569286,0.281121 -4.9346907,1.34757834 -6.5214285,2.94022834 -0.2891934,0.29027 -0.6964378,0.764503 -0.8251694,0.9609 -0.040008,0.06108 -0.059022,0.06475 -0.2942205,0.05678 l -0.2514278,-0.0085 0.119661,-0.171183 C 3.5625637,3.4687926 4.3803964,2.6655016 5.2290665,2.0615056 6.0833944,1.4534826 7.5326209,0.77316526 8.5695885,0.49334726 9.9859256,0.11115976 10.823327,-0.00110004 12.249645,8.6603802e-6 13.441799,9.5466038e-4 14.167104,0.07765266 15.159754,0.30780546 c 1.077276,0.2497768 1.778933,0.4959908 2.681868,0.94107414 1.043876,0.514559 1.866633,1.090648 2.612251,1.829078 0.54956,0.544262 1.205677,1.367924 1.061048,1.331998 -0.01177,-0.0029 -0.126074,-0.01256 -0.254007,-0.02139 z M 3.9044421,4.3276956 c 8.58e-5,-0.0308 0.5045846,-0.58325 0.7016623,-0.768332 0.65203,-0.612334 1.3954643,-1.126558 2.2425671,-1.551159 l 0.3295098,-0.165163 0.3959449,0.08534 c 0.2177697,0.04694 0.4922386,0.101401 0.609928,0.121031 0.1176861,0.01963 0.2179718,0.03866 0.2228532,0.04228 0.0049,0.0036 -0.1082024,0.201121 -0.2512984,0.43888 -0.143101,0.237761 -0.3585309,0.621068 -0.4787411,0.851794 l -0.2185644,0.419505 -0.021164,-0.123358 c -0.054857,-0.319826 -0.3037302,-0.655502 -0.5904167,-0.796347 -0.1588306,-0.07803 -0.1658754,-0.0788 -0.667065,-0.07279 -0.6209742,0.0075 -0.7073077,0.02775 -0.8813012,0.20734 -0.1479429,0.152709 -0.1624796,0.199191 -0.2834662,0.906414 l -0.064671,0.378029 -0.1591096,0.0028 c -0.08751,0.0016 -0.322817,0.01119 -0.5229079,0.02139 -0.200095,0.01017 -0.3637853,0.01119 -0.3637641,0.0023 z m 16.1838509,-0.0032 c -0.387856,-0.02073 -2.654654,-0.108962 -2.799205,-0.108962 -0.08332,0 -0.09411,-0.01634 -0.325183,-0.492151 -0.259373,-0.534069 -0.540389,-1.043096 -0.778044,-1.409328 l -0.15085,-0.232464 0.275636,-0.04837 c 0.151597,-0.0266 0.426687,-0.08383 0.61131,-0.127169 l 0.33568,-0.0788 0.377583,0.190247 c 1.101621,0.55505 2.054154,1.277541 2.733261,2.073164 0.108792,0.127458 0.197802,0.238999 0.197802,0.247869 0,0.0088 -0.02572,0.01372 -0.05717,0.01074 -0.03143,-0.0029 -0.220815,-0.0141 -0.420824,-0.0248 z m -12.1764402,-0.239 c 0.1175098,-0.281241 0.5362937,-1.028646 0.8829114,-1.575742 0.1659095,-0.261868 0.2340451,-0.347023 0.2693167,-0.336584 0.039668,0.01173 0.41073,0.04856 1.1599001,0.115109 0.208548,0.01852 1.182026,0.05545 1.504877,0.05707 l 0.278066,0.0015 9.5e-5,0.146994 c 8.6e-5,0.134922 -0.0063,0.149253 -0.07874,0.17448 -0.115943,0.04041 -0.258425,0.170095 -0.320425,0.291622 -0.03461,0.06787 -0.08071,0.295531 -0.126749,0.626176 -0.03979,0.285747 -0.07801,0.52869 -0.08491,0.539871 -0.0069,0.01119 -0.318424,0.02297 -0.692256,0.02618 -0.373827,0.0032 -1.1652368,0.01409 -1.758688,0.02417 l -1.0790014,0.01834 z m 6.7842802,0.08011 -0.748924,-0.0081 v -0.176022 c 0,-0.534 -0.278428,-1.016111 -0.709339,-1.228248 -0.152082,-0.07488 -0.223917,-0.09166 -0.435393,-0.101774 l -0.253262,-0.01211 v -0.139161 c 0,-0.137467 0.0012,-0.139195 0.09272,-0.141692 0.05099,-0.0014 0.150498,-0.0062 0.22111,-0.01085 0.07062,-0.0045 0.359484,-0.01663 0.641939,-0.0268 0.282448,-0.01017 0.58416,-0.02456 0.670464,-0.03197 0.502966,-0.0432 1.110499,-0.102814 1.186542,-0.116427 0.08539,-0.01529 0.09436,-0.0062 0.289177,0.293231 0.326792,0.502262 0.822215,1.390542 0.922149,1.653387 l 0.0258,0.06788 -0.577035,-0.0067 c -0.317368,-0.0036 -0.914053,-0.01017 -1.325964,-0.01468 z m -3.673299,-2.367442 c -0.201851,-0.0058 -0.49493,-0.02467 -1.2418544,-0.0801 -0.2811825,-0.02086 -0.3987999,-0.03992 -0.3979629,-0.06446 3.866e-4,-0.01107 0.1143332,-0.162521 0.2532349,-0.336587 l 0.252544,-0.3164817 0.2246564,-0.03622 c 0.65686,-0.105899 0.768046,-0.106848 0.690148,-0.0059 -0.03082,0.03994 -0.0273,0.03955 0.02228,-0.0025 0.07586,-0.06439 0.115307,-0.06439 0.06544,0 -0.03146,0.04064 -0.02683,0.03983 0.02503,-0.0044 0.07979,-0.06807 0.07945,-0.07074 -0.0077,-0.06119 -0.03924,0.0043 -0.07133,-0.0033 -0.07133,-0.01677 0,-0.01353 0.04173,-0.02478 0.09272,-0.025 0.130771,-5.58e-4 0.567848,-0.02932 0.627671,-0.04132 0.02747,-0.0055 0.04993,0.0064 0.04993,0.02662 0,0.02015 0.01657,0.05038 0.03683,0.0672 0.02807,0.02329 0.03795,0.01572 0.04151,-0.03181 0.0038,-0.04931 -8.84e-4,-0.05349 -0.02211,-0.01995 -0.02271,0.03593 -0.02688,0.03478 -0.02726,-0.0075 -3.87e-4,-0.04247 0.02726,-0.04993 0.185009,-0.04993 h 0.185448 v 0.51526274 0.515264 l -0.37803,-0.0088 c -0.207913,-0.0049 -0.480737,-0.01179 -0.60627,-0.01537 z m -1.2220544,-0.56283 c 0,-0.02285 -0.01091,-0.0348 -0.02425,-0.02656 -0.01335,0.0083 -0.01687,0.02693 -0.0078,0.04155 0.02306,0.03733 0.03207,0.03313 0.03207,-0.01499 z m 0.114371,-0.119886 c -0.01034,-0.01028 -0.003,-0.03922 0.01666,-0.06419 0.0313,-0.04012 0.02962,-0.04088 -0.01421,-0.0066 -0.04464,0.03499 -0.04525,0.08949 -8.85e-4,0.08949 0.0095,0 0.0089,-0.0085 -0.0013,-0.01877 z m 1.7817934,-0.05968 c 0.0355,-0.04525 0.03447,-0.04626 -0.01074,-0.01074 -0.02748,0.02154 -0.04993,0.044 -0.04993,0.04993 0,0.02348 0.02344,0.0084 0.0607,-0.03916 z m -1.582329,-0.01662 c 0,-0.02092 -0.01692,-0.03804 -0.03761,-0.03804 -0.02808,0 -0.02962,0.0096 -0.006,0.03804 0.01735,0.02092 0.03426,0.03804 0.03757,0.03804 0.0034,0 0.006,-0.01712 0.006,-0.03804 z m 0.171431,0.01927 c -0.01031,-0.01028 -0.0063,-0.03386 0.0091,-0.05231 0.01902,-0.02292 0.01546,-0.03353 -0.01129,-0.03353 -0.0215,0 -0.03511,0.02033 -0.03027,0.04517 0.01211,0.06161 0.01091,0.05944 0.03224,0.05944 0.01048,0 0.01057,-0.0085 2.88e-4,-0.01877 z m 0.09275,-0.05001 c 0.02576,-0.03101 0.0249,-0.04516 -0.0034,-0.06163 -0.0204,-0.01175 -0.02752,-0.01085 -0.01588,0.0019 0.01164,0.01284 0.0069,0.04057 -0.01065,0.06163 -0.01747,0.02106 -0.02537,0.03829 -0.01752,0.03829 0.0079,0 0.02932,-0.01812 0.04767,-0.04026 z m 0.86166,-0.0097 c 0.0355,-0.04525 0.03447,-0.04626 -0.01074,-0.01074 -0.02747,0.02154 -0.04993,0.04401 -0.04993,0.04993 0,0.02349 0.02344,0.0084 0.0607,-0.03916 z m -0.764118,-0.02263 c -0.0093,-0.02421 -0.02301,-0.03791 -0.03048,-0.03042 -0.0075,0.0075 -0.0051,0.02729 0.0052,0.04402 0.02812,0.04552 0.04458,0.03668 0.02529,-0.0136 z m 0.59568,0.01051 c -0.02185,-0.02185 -0.02399,-0.04508 -0.0061,-0.06657 0.01847,-0.02226 0.01468,-0.03301 -0.01172,-0.03301 -0.02151,0 -0.037,0.01391 -0.03443,0.03091 0.0066,0.04312 0.04564,0.10223704 0.06756,0.10223704 0.01006,0 0.0029,-0.0151 -0.01528,-0.03355 z m -0.508608,-0.01875 c 0.0081,-0.01308 -0.0034,-0.02378 -0.02559,-0.02378 -0.02215,0 -0.03366,0.01074 -0.02559,0.02378 0.0081,0.01308 0.01958,0.02378 0.02559,0.02378 0.006,0 0.01752,-0.01074 0.02559,-0.02378 z m 0.09729,-0.04831 c -0.0088,-0.0088 -0.02473,0.007 -0.03546,0.03518 -0.01549,0.04067 -0.0122,0.04394 0.01597,0.01597 0.01949,-0.01935 0.02825,-0.04237 0.01949,-0.05116 z m 0.07242,0.02805 c -0.0093,-0.02421 -0.02301,-0.03791 -0.03048,-0.03042 -0.0075,0.0075 -0.0052,0.02729 0.0052,0.04402 0.02812,0.04552 0.04458,0.03668 0.02529,-0.0136 z m 0.867963,-0.04159 c -0.01872,-0.02994 -0.03953,-0.04891 -0.04628,-0.04216 -0.0068,0.0068 0.0021,0.02981 0.02009,0.05125 0.01778,0.02144 0.02284,0.04948 0.01119,0.06232 -0.01164,0.01284 -0.0054,0.01427 0.01391,0.0032 0.02731,-0.0157 0.02756,-0.03221 0.0012,-0.0746 z m -0.417582,0.0188 c -0.01747,-0.02106 -0.02228,-0.04879 -0.01062,-0.06163 0.01164,-0.01284 0.0045,-0.01372 -0.01588,-0.0019 -0.02855,0.01647 -0.02936,0.03062 -0.0034,0.06163 0.01838,0.02214 0.03984,0.04026 0.04767,0.04026 0.0078,0 -2.6e-5,-0.01722 -0.01752,-0.03829 z m 0.342368,0 c -0.01747,-0.02106 -0.02606,-0.04399 -0.0191,-0.05095 0.0069,-0.007 -0.03074,-0.01266 -0.08375,-0.01266 -0.05303,0 -0.09065,0.0093 -0.08363,0.02066 0.007,0.01137 0.03735,0.01593 0.06739,0.01017 0.03005,-0.0058 0.06986,0.0078 0.08848,0.03028 0.01864,0.02243 0.04027,0.0408 0.04812,0.0408 0.0078,0 -3e-5,-0.01722 -0.01752,-0.03829 z m 0.386113,0.01921 c -0.01051,-0.01051 2.88e-4,-0.04045 0.02392,-0.06657 0.03714,-0.04104 0.03731,-0.04749 0.0012,-0.04749 -0.02293,0 -0.03559,0.0098 -0.02816,0.0218 0.0075,0.01199 1.9e-4,0.03 -0.01597,0.04001 -0.0289,0.01787 -0.01339,0.07133 0.02069,0.07133 0.0095,0 0.0087,-0.0086 -0.0017,-0.01908 z m -0.610525,-0.05939 c -0.01275,-0.03327 -0.01979,-0.03369 -0.03962,-0.0024 -0.01971,0.03109 -0.02421,0.03065 -0.02455,-0.0024 -1.93e-4,-0.02223 -0.0081,-0.03271 -0.01755,-0.02329 -0.0258,0.0258 0.009,0.06847 0.05594,0.06847 0.02396,0 0.03482,-0.01701 0.0258,-0.04044 z m 0.505539,-0.04627 c -2.88e-4,-0.01886 -0.01062,-0.01608 -0.02507,0.0067 -0.02082,0.03283 -0.02697,0.03283 -0.03946,0 -0.0081,-0.02139 -0.01344,-0.01062 -0.01176,0.02385 0.0021,0.04789 0.01176,0.0555 0.03988,0.03217 0.02026,-0.01681 0.03662,-0.04505 0.0364,-0.06274 z M 12.549223,1.3050146 V 0.78552786 l 0.278174,0.01802 c 0.451381,0.02924 0.663918,0.04697 0.905093,0.07553 0.125122,0.01481 0.236522,0.02693 0.247551,0.02693 0.01108,0 0.02593,0.02247 0.0331,0.04993 0.01028,0.03938 0.01374,0.04046 0.01635,0.0051 0.0035,-0.04685 0.0061,-0.04673 0.410447,0.01701 0.131656,0.02076 0.14447,0.03194 0.392296,0.34236774 0.140907,0.176503 0.256193,0.327526 0.256193,0.335609 0,0.01438 -0.155607,0.03362 -0.499284,0.06178 -0.447967,0.03669 -0.526853,0.04296 -0.713261,0.0567 -0.109843,0.0081 -0.45328,0.02265 -0.763191,0.03235 l -0.563478,0.01762 z m 2.031662,-0.233225 c -0.04091,-0.04091 -0.127177,-0.05762 -0.104011,-0.02014 0.009,0.01457 0.02743,0.01965 0.04096,0.0113 0.01352,-0.0084 0.03267,-0.0021 0.0425,0.0138 0.0098,0.01595 0.02614,0.029 0.03619,0.029 0.01006,0 0.0031,-0.01527 -0.01568,-0.03395 z m -0.321941,-0.03484 c 0.02576,-0.03101 0.0249,-0.04516 -0.0035,-0.06163 -0.0204,-0.01176 -0.02752,-0.01085 -0.01588,0.0019 0.01164,0.01284 0.0069,0.04057 -0.01062,0.06163 -0.01747,0.02106 -0.02537,0.03829 -0.01752,0.03829 0.0078,0 0.02933,-0.01812 0.04767,-0.04026 z m 0.09755,-0.0037 c -0.0093,-0.02421 -0.02301,-0.03791 -0.03048,-0.03042 -0.0075,0.0075 -0.0051,0.0273 0.0052,0.04402 0.02812,0.04553 0.04458,0.03668 0.02528,-0.0136 z m -1.546751,-0.05132 c -0.01747,-0.02106 -0.02224,-0.04781 -0.01062,-0.05944 0.01164,-0.01163 0.0017,-0.01687 -0.02163,-0.01164 -0.02881,0.0064 -0.0401,-0.0092 -0.03447,-0.04755 0.0069,-0.04701 0.0031,-0.04951 -0.02095,-0.01426 -0.01974,0.02884 -0.02941,0.03117 -0.02971,0.0071 -1.93e-4,-0.01962 -0.0261,-0.03566 -0.05749,-0.03566 -0.06742,0 -0.07669,0.07195 -0.01244,0.0966 0.02499,0.0096 0.03559,0.0317 0.02413,0.05026 -0.01313,0.02124 -0.008,0.02542 0.0143,0.01163 0.02614,-0.01616 0.02258,-0.03498 -0.0143,-0.07573 -0.08123,-0.08975 -2.87e-4,-0.06095 0.08815,0.03136 0.08241,0.08603 0.134376,0.11876804 0.07507,0.0473 z m 0.668726,0.01299 c -0.0086,-0.01391 0.0059,-0.0428 0.0322,-0.06419 0.04233,-0.03441 0.04556,-0.03231 0.02816,0.01816 -0.01936,0.05618 -0.01902,0.0562 0.02318,0.0017 0.03826,-0.04943 0.05597,-0.04189 0.04625,0.01972 -0.0053,0.03371 0.01499,0.0252 0.05502,-0.02301 0.02026,-0.02442 0.02507,-0.04216 0.01062,-0.03942 -0.01442,0.0027 -0.03263,0.0021 -0.04048,-0.0012 -0.04237,-0.01843 -0.167014,-0.01689 -0.15538,0.0019 0.0076,0.01215 3.83e-4,0.03029 -0.0158,0.0403 -0.02748,0.01699 -0.01404,0.07133 0.01764,0.07133 0.0078,0 0.0072,-0.01138 -0.0012,-0.02529 z m 0.386902,-0.01299 c -0.01747,-0.02106 -0.02588,-0.04417 -0.01872,-0.05136 0.0071,-0.0072 -0.01804,-0.01307 -0.05607,-0.01307 -0.05319,0 -0.0621,0.0085 -0.0386,0.03678 0.0168,0.02023 0.041,0.03029 0.05385,0.02235 0.01284,-0.0079 0.03139,-0.0014 0.04125,0.01458 0.0098,0.01595 0.02516,0.02899 0.034,0.02899 0.0088,0 0.0017,-0.01722 -0.01571,-0.03829 z m 0.10087,2.87e-4 c 0,-0.02092 -0.01691,-0.03804 -0.0376,-0.03804 -0.02807,0 -0.02962,0.0096 -0.006,0.03804 0.01735,0.02092 0.03426,0.03804 0.0376,0.03804 0.0035,0 0.006,-0.01712 0.006,-0.03804 z m -1.024225,-0.07611 c -0.01867,-0.02994 -0.03953,-0.04892 -0.04628,-0.04217 -0.0068,0.0068 0.0021,0.02981 0.02009,0.05125 0.01778,0.02144 0.02284,0.04948 0.01119,0.06232 -0.01164,0.01284 -0.0054,0.01427 0.01395,0.0032 0.02731,-0.0157 0.02757,-0.03221 0.0012,-0.0746 z m 0.453862,0.06684 c -0.01028,-0.01028 -0.0062,-0.03386 0.009,-0.05231 0.01902,-0.02292 0.01546,-0.03353 -0.0113,-0.03353 -0.02151,0 -0.03512,0.02033 -0.03027,0.04517 0.0121,0.06161 0.01096,0.05944 0.03224,0.05944 0.01051,0 0.01051,-0.0085 2.88e-4,-0.01877 z m -0.225034,-0.09925 c -0.0071,-0.02137 -0.02005,-0.0085 -0.03014,0.03014 -0.01241,0.04746 -0.0087,0.0586 0.0125,0.03742 0.01657,-0.01658 0.02451,-0.04698 0.01769,-0.06756 z m -0.14611,0.02292 c 0,-0.02092 -0.01691,-0.03804 -0.0376,-0.03804 -0.02807,0 -0.02962,0.0096 -0.006,0.03804 0.01739,0.02092 0.0343,0.03804 0.0376,0.03804 0.0035,0 0.006,-0.01712 0.006,-0.03804 z m 0.09511,-0.02072 c 0,-0.01477 -0.01074,-0.02684 -0.02378,-0.02684 -0.0131,0 -0.02378,0.01869 -0.02378,0.04155 0,0.02285 0.01074,0.03492 0.02378,0.02684 0.0131,-0.008 0.02378,-0.02677 0.02378,-0.04155 z m 0.12717,0.03219 c 0.009,-0.0146 0.0055,-0.03331 -0.0078,-0.04155 -0.01335,-0.0082 -0.02425,0.0037 -0.02425,0.02656 0,0.04811 0.009,0.05231 0.03206,0.01499 z M 8.5811194,1.5792586 c -0.00653,-0.0063 -0.076082,-0.0202 -0.1545419,-0.0307 -0.07846,-0.01051 -0.1940077,-0.02871 -0.2567726,-0.04045 l -0.1141221,-0.02134 0.099856,-0.03106 c 0.2918816,-0.09079 0.8669756,-0.264284 0.876017,-0.264284 0.00579,0 -0.0034,0.02604 -0.020517,0.05785 -0.01704,0.03183 -0.041043,0.05165 -0.053312,0.04406 -0.012276,-0.0076 -0.022369,0.0031 -0.022369,0.02369 0,0.02063 -0.037435,0.09041 -0.083212,0.155054 -0.066446,0.09386 -0.1009387,0.117677 -0.1711822,0.118164 -0.048386,2.87e-4 -0.093318,-0.0046 -0.099856,-0.01096 z m 7.0351416,-0.117609 c -0.04707,-0.07185 -0.08206,-0.143751 -0.07775,-0.159777 0.0043,-0.01603 -0.0046,-0.02141 -0.01996,-0.01195 -0.01528,0.0095 -0.04173,-0.0088 -0.05877,-0.04068 -0.01704,-0.03183 -0.0252,-0.05785 -0.01816,-0.05785 0.007,0 0.18402,0.05266 0.393297,0.117016 0.209283,0.06435 0.409399,0.123628 0.444707,0.131712 0.118646,0.02717 0.06569,0.05501 -0.171183,0.09001 -0.129458,0.01913 -0.273893,0.04093 -0.320971,0.04847 -0.07615,0.01218 -0.09503,-6.87e-4 -0.171182,-0.116947 z"
     id="path3" /></svg>
