<?xml version="1.0" encoding="UTF-8" standalone="no"?>
<svg
   width="24.158821"
   height="26.37224"
   viewBox="0 0 24.158821 26.37224"
   fill="none"
   version="1.1"
   id="svg3"
   xml:space="preserve"
   xmlns="http://www.w3.org/2000/svg"
   xmlns:svg="http://www.w3.org/2000/svg"><defs
     id="defs3" /><g
     id="g9"
     transform="matrix(0.08634471,0,0,0.08634471,-6.9085413,24.120291)"><path
       style="fill:#ffffff;fill-opacity:1"
       d="M 122,24.417338 C 107.36473,20.556181 93.010217,9.3110028 86.244604,-3.5930684 79.938531,-15.620659 80.031064,-14.113842 80.014781,-105.0399 c -0.01625,-90.7232 -0.19618,-87.77626 6.1644,-100.9601 3.734477,-7.7406 14.707969,-19.08746 22.506089,-23.27185 C 115.30716,-232.82509 127.72468,-236 135,-236 c 7.29171,0 19.7187,3.18245 26.27242,6.72815 6.7233,3.63744 16.22379,12.47134 20.37351,18.94402 1.82377,2.84469 4.44953,8.54903 5.83501,12.67632 L 190,-190.14737 v 85.02206 85.022066 l -2.48903,7.879171 C 178.93632,14.919488 149.14914,31.579972 122,24.417338 Z m 26.11079,-28.9734818 c 6.13621,-3.1094517 10.66688,-7.7711452 13.53156,-13.9229032 L 163.98046,-23.5 v -82 -82 l -2.36604,-5.08125 c -7.11992,-15.29055 -23.80182,-21.03173 -39.15252,-13.47461 -6.66474,3.28104 -11.15454,7.92599 -14.22608,14.71766 L 106.5,-187.5 l -0.27885,79.89485 c -0.30657,87.838377 -0.42567,85.881358 5.74496,94.399671 8.12903,11.2217959 23.71024,14.9503431 36.14468,8.6493352 z M 287.78164,24.447056 C 275.36221,21.436176 264.30573,13.821965 254.46057,1.5 246.89039,-7.9746561 206,-89.037074 206,-94.569789 206,-101.65109 211.4413,-107 218.64491,-107 c 2.10998,0 23.55544,3.61473 47.6566,8.03273 46.66105,8.553475 54.53007,10.668838 66.79695,17.956455 31.75557,18.865641 36.00434,64.962179 8.3748,90.8614869 -14.19632,13.3073131 -35.3207,19.0501001 -53.69162,14.5963841 z m 26.4874,-27.2418671 c 9.21577,-4.0765724 15.69324,-11.9930379 18.37355,-22.4552989 3.52817,-13.771802 -1.69064,-26.526493 -13.97063,-34.143984 -6.40931,-3.975806 -16.67832,-6.637056 -44.93227,-11.644359 -16.36817,-2.900847 -30.0157,-5.018871 -30.32785,-4.70672 -0.31215,0.312151 5.84195,13.294151 13.67577,28.848889 l 14.24333,28.281343 7.08453,7.380937 c 5.57024,5.8032881 8.26014,7.799657 12.58453,9.3398892 6.69822,2.38572415 16.71617,1.99794999 23.26904,-0.9006963 z M 259.51941,-119.00768 c -27.97323,-5.01263 -47.66326,-27.00354 -49.23853,-54.99232 -1.62038,-28.7902 18.09088,-54.59 46.21912,-60.4956 3.85,-0.80832 8.45399,-1.47749 10.23108,-1.48704 l 3.23108,-0.0174 -3.60976,6.56715 c -1.98537,3.61193 -4.62124,9.79943 -5.8575,13.75 l -2.24775,7.18285 -4.64131,2.57103 c -6.5329,3.61885 -11.2499,8.50555 -14.39849,14.91648 -2.30365,4.6905 -2.70537,6.77996 -2.69404,14.01249 0.0113,7.23886 0.4239,9.33998 2.78069,14.16136 3.32642,6.80503 8.98804,12.15332 16.58599,15.6681 7.60289,3.51707 18.21138,3.61269 25.88047,0.23329 6.74855,-2.97377 15.39445,-12.1343 17.62153,-18.67042 2.01839,-5.92367 2.0892,-16.80538 0.1452,-22.31526 -1.90233,-5.39179 -6.67276,-11.91263 -11.02988,-15.07707 -1.89324,-1.375 -3.45464,-3.22704 -3.46978,-4.11564 -0.037,-2.17235 6.31613,-14.64299 9.36587,-18.38436 l 2.44543,-3 3.5751,1.90452 c 4.96886,2.64699 14.44634,12.37486 18.34773,18.83246 5.54077,9.17109 7.53904,16.10845 8.01661,27.8312 0.75278,18.47828 -4.14403,31.30179 -16.82226,44.05325 -7.9525,7.99844 -17.22345,13.38819 -27.07143,15.73821 -6.79918,1.62249 -17.68642,2.15027 -23.36517,1.13268 z"
       id="path3" /><path
       style="fill:#8bd40a;fill-opacity:1;stroke-width:2.50205;paint-order:markers stroke fill"
       d="m 268.36251,-181.58093 c 0,0 9.02039,3.38264 13.34266,-5.82567 4.32227,-9.20831 1.87924,-16.91323 5.63774,-21.61135 3.7585,-4.69812 4.32227,-18.41663 18.41663,-29.88004 14.09436,-11.46341 27.24909,-14.47021 27.24909,-14.47021 0,0 12.59096,-1.87924 10.89964,-16.53738 -1.69133,-14.65813 -22.17513,-8.45661 -26.12155,-6.20152 -3.94642,2.2551 -26.87324,8.08077 -45.28987,36.26949 -18.41663,28.18871 -13.34266,38.14873 -13.90643,43.97439 -0.56378,5.82567 -0.56378,10.33587 9.77209,14.28229 z"
       id="path9" /></g></svg>
