<?xml version="1.0" encoding="UTF-8" standalone="no"?>
<svg
   width="21.862574"
   height="21.871611"
   viewBox="0 0 21.862574 21.871611"
   fill="none"
   version="1.1"
   id="svg3"
   xml:space="preserve"
   xmlns="http://www.w3.org/2000/svg"
   xmlns:svg="http://www.w3.org/2000/svg"><defs
     id="defs3" /><path
     id="path11"
     style="fill:#f2f2f2;fill-opacity:1;stroke-width:0.0764897"
     d="M 10.888124,2.3039367e-6 C 10.642577,-1.2769607e-4 10.397307,0.0287763 10.230157,0.0863233 10.087155,0.1355523 7.920345,1.3256359 5.4172056,2.7316236 0.60253806,5.4359868 0.31741786,5.6269688 0.14770436,6.2382298 c -0.28743,1.035207 0.1852955,2.035408 1.12027504,2.369068 0.4002627,0.142858 0.844813,0.129647 1.2046747,-0.03453 0.1682872,-0.07676 2.090803,-1.145466 4.2719985,-2.374823 2.1812074,-1.22936 4.0105984,-2.252374 4.0648224,-2.273155 0.05416,-0.02079 2.030977,1.033293 4.39285,2.342212 4.706681,2.608389 4.66474,2.590855 5.424879,2.338377 0.696661,-0.231398 1.23537,-1.010137 1.23537,-1.783996 0,-0.379887 -0.23727,-0.937522 -0.525608,-1.235368 -0.191611,-0.19793 -1.70785,-1.07899 -4.905028,-2.8486361 C 13.886751,1.3286064 11.687184,0.1359366 11.544176,0.0863215 11.377788,0.0285882 11.133673,1.2410393e-4 10.888124,2.0393671e-7 Z M 5.7318034,8.6801938 c -0.1002953,0.0037 -0.2004461,0.01424 -0.2973336,0.03261 -0.5619983,0.106591 -0.9392358,0.320896 -1.3255265,0.753881 L 3.7732441,9.8426668 1.9144372,14.605743 c -1.02316264,2.620706 -1.88014154,4.922325 -1.90292934,5.116038 -0.089459,0.757988 0.3508354,1.581576 1.03586934,1.937458 0.7871024,0.408901 1.8277647,0.210562 2.3729055,-0.450794 0.142527,-0.172911 0.6282812,-1.317739 1.3869112,-3.262985 0.6427774,-1.648162 1.178351,-3.005909 1.1893321,-3.019365 0.010527,-0.01342 0.7290934,1.371026 1.5979223,3.076913 0.9791087,1.922402 1.6719697,3.193182 1.8223607,3.343553 0.366878,0.366884 0.777046,0.521723 1.384994,0.523688 0.692062,0.0021 1.055301,-0.113918 1.459807,-0.469978 0.279525,-0.246051 0.529875,-0.681395 1.572985,-2.72203 0.682685,-1.335537 1.404345,-2.730201 1.601759,-3.099931 l 0.358718,-0.673316 1.179738,3.005936 c 1.016931,2.590735 1.220981,3.051433 1.484744,3.341633 0.399415,0.439454 0.795289,0.615624 1.386913,0.617686 0.573903,0.0021 0.929931,-0.139327 1.36773,-0.542872 0.403066,-0.371532 0.609756,-0.865475 0.604257,-1.444461 l -0.0039,-0.420101 -1.856889,-4.70361 C 18.936822,12.171942 18.017121,9.9059738 17.912784,9.7256528 17.54054,9.0820188 16.746642,8.6786348 15.875576,8.6878678 c -0.616898,0.0064 -1.360173,0.387137 -1.73412,0.888159 -0.148823,0.199394 -0.938674,1.6737242 -1.753302,3.2764142 -0.93765,1.844734 -1.50767,2.887066 -1.553803,2.840964 C 10.794311,15.653365 10.091732,14.30188 9.272876,12.689386 8.453997,11.076897 7.694188,9.6389198 7.5847717,9.4954638 7.1881605,8.9754928 6.4338052,8.6541638 5.7317188,8.6801968 Z" /></svg>
