<?xml version="1.0" encoding="UTF-8" standalone="no"?>
<!-- Created with Inkscape (http://www.inkscape.org/) -->

<svg
   width="13.858849mm"
   height="13.838893mm"
   viewBox="0 0 13.858849 13.838893"
   version="1.1"
   id="svg1"
   xml:space="preserve"
   xmlns="http://www.w3.org/2000/svg"
   xmlns:svg="http://www.w3.org/2000/svg"><defs
     id="defs1" /><g
     id="layer1"
     transform="translate(-1.4627679,-3.5693996)"><path
       style="fill:#df1f21;fill-opacity:1;stroke-width:0.497372"
       d="M 6.8284509,17.234757 C 6.1059014,17.053542 5.1122578,16.656335 5.1961899,16.582263 5.2253956,16.556489 6.818581,15.216806 8.7365982,13.605195 10.654616,11.993584 12.273113,10.630866 12.333258,10.576934 12.393404,10.523001 10.805825,9.1006511 8.8053037,7.4161556 6.2230868,5.2418556 5.2179574,4.3209914 5.3402398,4.2415855 5.8575292,3.9056768 7.3062733,3.5814687 8.3418091,3.5698779 10.259056,3.5484163 11.992907,4.2499786 13.331944,5.5890154 16.603312,8.8603841 15.711251,14.573242 11.60542,16.645859 10.163236,17.373871 8.2993255,17.603651 6.8284509,17.234757 Z M 4.5913122,16.337387 C 1.5231747,14.202226 0.59197666,10.390689 2.3329483,7.0935556 2.9485144,5.9277671 4.8766467,4.1108438 5.092358,4.4933001 5.122827,4.5473182 5.4601433,5.9299988 5.841954,7.5659233 l 0.6942012,2.9744087 -0.6919143,2.88163 c -0.3805528,1.584897 -0.7293147,2.951051 -0.7750266,3.035898 -0.058713,0.108977 -0.199015,0.07361 -0.4779021,-0.120473 z"
       id="path1" /></g></svg>
