<?xml version="1.0" encoding="UTF-8" standalone="no"?>
<!-- Created with Inkscape (http://www.inkscape.org/) -->

<svg
   width="15.662768mm"
   height="15.287695mm"
   viewBox="0 0 15.662769 15.287695"
   version="1.1"
   id="svg1"
   xml:space="preserve"
   xmlns="http://www.w3.org/2000/svg"
   xmlns:svg="http://www.w3.org/2000/svg"><defs
     id="defs1" /><g
     id="layer1"
     transform="translate(-0.47538997,-4.227109)"><path
       style="fill:#007b3e;fill-opacity:1;stroke-width:0.175092"
       d="m 7.3780002,19.468512 c 0,-0.02763 -0.1775867,-0.04632 -0.4401029,-0.04632 -0.360319,0 -0.4401029,-0.0126 -0.4401029,-0.06949 0,-0.05464 -0.06434,-0.06949 -0.3011255,-0.06949 -0.2367801,0 -0.301123,-0.01485 -0.301123,-0.06949 0,-0.05018 -0.05147,-0.06949 -0.1853052,-0.06949 -0.1019151,0 -0.1853065,-0.02084 -0.1853065,-0.04632 0,-0.02548 -0.083384,-0.04632 -0.1853077,-0.04632 -0.1338329,0 -0.1853065,-0.01931 -0.1853065,-0.06949 0,-0.05018 -0.05147,-0.06949 -0.1853065,-0.06949 -0.1338341,0 -0.1853077,-0.01931 -0.1853077,-0.06949 0,-0.04323 -0.043748,-0.06949 -0.1158103,-0.06949 -0.063703,0 -0.1158103,-0.02084 -0.1158103,-0.04632 0,-0.02548 -0.049883,-0.04632 -0.110862,-0.04632 -0.060967,0 -0.1228579,-0.03126 -0.1375254,-0.06949 -0.01467,-0.03822 -0.079435,-0.06949 -0.1439369,-0.06949 -0.07335,0 -0.1172723,-0.02602 -0.1172723,-0.06949 0,-0.04323 -0.043748,-0.06949 -0.1158103,-0.06949 -0.063703,0 -0.1158228,-0.02084 -0.1158228,-0.04632 0,-0.02548 -0.031264,-0.04632 -0.069489,-0.04632 -0.038224,0 -0.069489,-0.03126 -0.069489,-0.06949 0,-0.04323 -0.043748,-0.06949 -0.1158103,-0.06949 -0.072063,0 -0.1158103,-0.02625 -0.1158103,-0.06949 0,-0.03822 -0.031277,-0.06949 -0.069489,-0.06949 -0.038224,0 -0.069489,-0.02084 -0.069489,-0.04632 0,-0.02548 -0.031277,-0.04632 -0.069489,-0.04632 -0.038224,0 -0.069489,-0.03126 -0.069489,-0.06949 0,-0.04323 -0.04376,-0.06949 -0.1158228,-0.06949 -0.063703,0 -0.1158103,-0.02234 -0.1158103,-0.04963 0,-0.06414 -0.1178596,-0.181998 -0.1819989,-0.181998 -0.027303,0 -0.049633,-0.03126 -0.049633,-0.06949 0,-0.03822 -0.031264,-0.06949 -0.069489,-0.06949 -0.038224,0 -0.069489,-0.02234 -0.069489,-0.04963 0,-0.06414 -0.1178596,-0.181998 -0.1819964,-0.181998 -0.027303,0 -0.049633,-0.03128 -0.049633,-0.06949 0,-0.03822 -0.031277,-0.06949 -0.069489,-0.06949 -0.038224,0 -0.069489,-0.03126 -0.069489,-0.06949 0,-0.03822 -0.019443,-0.06949 -0.04321,-0.06949 -0.023767,0 -0.057943,-0.04691 -0.075949,-0.104239 -0.018006,-0.05733 -0.1028022,-0.170588 -0.1884291,-0.251686 -0.085621,-0.0811 -0.1556854,-0.190545 -0.1556854,-0.243215 0,-0.05424 -0.030127,-0.09577 -0.069489,-0.09577 -0.038224,0 -0.069489,-0.03128 -0.069489,-0.06949 0,-0.03823 -0.031264,-0.06949 -0.069489,-0.06949 -0.046322,0 -0.069489,-0.04632 -0.069489,-0.13898 0,-0.07644 -0.020843,-0.13898 -0.046322,-0.13898 -0.025479,0 -0.046322,-0.04235 -0.046322,-0.0941 0,-0.05176 -0.031277,-0.106113 -0.069489,-0.120771 -0.038212,-0.01467 -0.069489,-0.07655 -0.069489,-0.137527 0,-0.06766 -0.027078,-0.110862 -0.069489,-0.110862 -0.046322,0 -0.069489,-0.04632 -0.069489,-0.138979 0,-0.07644 -0.020843,-0.13898 -0.046334,-0.13898 -0.025479,0 -0.0463216,-0.07296 -0.0463216,-0.162145 0,-0.113236 -0.0209553,-0.162143 -0.0694887,-0.162143 -0.0501828,0 -0.0694887,-0.05147 -0.0694887,-0.185306 0,-0.133833 -0.0193059,-0.185307 -0.0694887,-0.185307 -0.0533442,0 -0.0694887,-0.05919 -0.0694887,-0.254796 0,-0.140138 -0.0208428,-0.254797 -0.0463216,-0.254797 -0.0254788,0 -0.0463216,-0.113173 -0.0463216,-0.251487 0,-0.161776 -0.0247915,-0.276277 -0.0694887,-0.320979 C 0.4868236,13.232537 0.47539,13.030705 0.47539,12.063483 c 0,-0.854186 0.0144575,-1.162435 0.0551686,-1.176003 0.0325014,-0.01087 0.0632658,-0.145678 0.0748868,-0.328148 0.0108713,-0.170367 0.0381369,-0.30976 0.0606542,-0.30976 0.0225173,0 0.0409235,-0.104239 0.0409235,-0.231632 0,-0.1750123 0.0169817,-0.2316338 0.0694887,-0.2316338 0.0487958,0 0.0694887,-0.049268 0.0694887,-0.1654523 0,-0.090999 0.0312643,-0.1967229 0.0694887,-0.2349423 0.0382244,-0.038219 0.0694887,-0.1305421 0.0694887,-0.2051612 0,-0.074619 0.0208429,-0.1356708 0.0463216,-0.1356708 0.025479,0 0.046334,-0.052117 0.046334,-0.1158166 0,-0.072064 0.026254,-0.1158165 0.069489,-0.1158165 0.046322,0 0.069489,-0.046327 0.069489,-0.13898 0,-0.076439 0.020443,-0.1389799 0.045447,-0.1389799 0.024992,0 0.05853,-0.052117 0.074512,-0.1158165 0.015982,-0.063699 0.047659,-0.1158165 0.070376,-0.1158165 0.022717,0 0.041298,-0.052117 0.041298,-0.1158166 0,-0.072064 0.026253,-0.1158165 0.069489,-0.1158165 0.039149,0 0.069489,-0.041425 0.069489,-0.094865 0,-0.052176 0.05212,-0.1431662 0.1158228,-0.2022007 0.063703,-0.059035 0.1158103,-0.1518503 0.1158103,-0.2062579 0,-0.057047 0.029415,-0.098922 0.069489,-0.098922 0.038212,0 0.069489,-0.03127 0.069489,-0.06949 0,-0.038219 0.031264,-0.06949 0.069489,-0.06949 0.038224,0 0.069489,-0.03127 0.069489,-0.06949 0,-0.038219 0.020843,-0.06949 0.046322,-0.06949 0.025479,0 0.046322,-0.052117 0.046322,-0.1158165 0,-0.072064 0.026254,-0.1158166 0.069489,-0.1158166 0.038224,0 0.069489,-0.031271 0.069489,-0.06949 0,-0.038219 0.02233,-0.06949 0.049633,-0.06949 0.06414,0 0.1819964,-0.1178596 0.1819964,-0.1819977 0,-0.027299 0.031277,-0.049635 0.069489,-0.049635 0.038224,0 0.069489,-0.031271 0.069489,-0.06949 0,-0.038219 0.022342,-0.06949 0.049633,-0.06949 0.064141,0 0.1819989,-0.1178596 0.1819989,-0.1819977 0,-0.027299 0.031264,-0.049635 0.069489,-0.049635 0.038224,0 0.069489,-0.03127 0.069489,-0.06949 0,-0.038219 0.031264,-0.06949 0.069489,-0.06949 0.038212,0 0.069489,-0.019442 0.069489,-0.043205 0,-0.023763 0.046909,-0.057939 0.1042393,-0.075948 0.05733,-0.018009 0.1680986,-0.1001619 0.2461543,-0.1825637 0.078061,-0.082402 0.1875032,-0.1642888 0.2432142,-0.1819714 0.055706,-0.017683 0.1012902,-0.051592 0.1012902,-0.075354 0,-0.023763 0.031264,-0.043205 0.069489,-0.043205 0.038224,0 0.069489,-0.03127 0.069489,-0.06949 0,-0.043238 0.043748,-0.06949 0.1158228,-0.06949 0.063703,0 0.1158228,-0.019191 0.1158228,-0.042645 0,-0.023456 0.062541,-0.056382 0.1389798,-0.073171 0.076436,-0.016789 0.1389799,-0.049715 0.1389799,-0.073171 0,-0.023454 0.031264,-0.042645 0.069489,-0.042645 0.038224,0 0.069489,-0.031271 0.069489,-0.06949 0,-0.048532 0.048896,-0.06949 0.1621432,-0.06949 0.089182,0 0.1621432,-0.020847 0.1621432,-0.046327 0,-0.02548 0.052769,-0.046327 0.1172723,-0.046327 0.064503,0 0.1292719,-0.03127 0.1439369,-0.06949 0.01467,-0.038219 0.076549,-0.06949 0.1375253,-0.06949 0.067664,0 0.110862,-0.027081 0.110862,-0.06949 0,-0.052503 0.056618,-0.06949 0.2316319,-0.06949 0.1274,0 0.2316343,-0.020847 0.2316343,-0.046327 0,-0.02548 0.093805,-0.046327 0.2084685,-0.046327 0.1544233,0 0.2084711,-0.018016 0.2084711,-0.06949 0,-0.054641 0.06434,-0.06949 0.301123,-0.06949 0.2367813,0 0.301123,-0.014847 0.301123,-0.06949 0,-0.060053 0.1698643,-0.06949 1.2508199,-0.06949 1.0809557,0 1.25082,0.00943 1.25082,0.06949 0,0.054139 0.062141,0.06949 0.2812698,0.06949 0.188248,0 0.3042494,0.022982 0.3507584,0.06949 0.03823,0.038219 0.151391,0.06949 0.251488,0.06949 0.100103,0 0.181999,0.020847 0.181999,0.046327 0,0.02548 0.08338,0.046327 0.185305,0.046327 0.133833,0 0.185308,0.019302 0.185308,0.06949 0,0.050188 0.05147,0.06949 0.185306,0.06949 0.133833,0 0.185307,0.019303 0.185307,0.06949 0,0.046327 0.04632,0.06949 0.13898,0.06949 0.07644,0 0.13898,0.020847 0.13898,0.046327 0,0.02548 0.05212,0.046327 0.11581,0.046327 0.07206,0 0.115823,0.026252 0.115823,0.06949 0,0.042409 0.0432,0.06949 0.110862,0.06949 0.06097,0 0.122858,0.03127 0.137526,0.06949 0.01467,0.038219 0.06901,0.06949 0.120771,0.06949 0.05176,0 0.09411,0.020847 0.09411,0.046327 0,0.02548 0.02904,0.046327 0.06453,0.046327 0.03549,0 0.07654,0.03127 0.09119,0.06949 0.01467,0.038219 0.06678,0.06949 0.11581,0.06949 0.04903,0 0.101153,0.031271 0.115811,0.06949 0.01467,0.038219 0.0705,0.06949 0.124082,0.06949 0.10379,0 0.22978,0.099792 0.22978,0.1819976 0,0.027299 0.03127,0.049635 0.06949,0.049635 0.03822,0 0.06949,0.03127 0.06949,0.06949 0,0.038219 0.03126,0.06949 0.06949,0.06949 0.03822,0 0.06949,0.020847 0.06949,0.046327 0,0.02548 0.05212,0.046327 0.11581,0.046327 0.07206,0 0.115823,0.026252 0.115823,0.06949 0,0.038219 0.03128,0.06949 0.06949,0.06949 0.03821,0 0.06949,0.022336 0.06949,0.049636 0,0.064138 0.11786,0.1819977 0.181999,0.1819977 0.0273,0 0.04963,0.031271 0.04963,0.06949 0,0.038219 0.03126,0.06949 0.06949,0.06949 0.03822,0 0.06949,0.03127 0.06949,0.06949 0,0.038219 0.01944,0.06949 0.04321,0.06949 0.02377,0 0.05778,0.045933 0.0756,0.1020737 0.03786,0.1192729 0.131512,0.2222123 0.202171,0.2222123 0.0273,0 0.04963,0.031271 0.04963,0.06949 0,0.038219 0.02084,0.06949 0.04632,0.06949 0.02548,0 0.04632,0.03127 0.04632,0.06949 0,0.038219 0.03126,0.06949 0.06949,0.06949 0.04324,0 0.06949,0.043753 0.06949,0.1158166 0,0.072064 0.02625,0.1158165 0.06949,0.1158165 0.03822,0 0.06949,0.031271 0.06949,0.06949 0,0.038219 0.01859,0.06949 0.04131,0.06949 0.02272,0 0.05438,0.052117 0.07038,0.1158165 0.01598,0.063699 0.04952,0.1158166 0.07451,0.1158166 0.02499,0 0.04545,0.031271 0.04545,0.06949 0,0.038219 0.03126,0.06949 0.06949,0.06949 0.04323,0 0.06949,0.043753 0.06949,0.1158166 0,0.063699 0.02084,0.1158165 0.04632,0.1158165 0.02548,0 0.04633,0.052772 0.04633,0.1172711 0,0.064499 0.03126,0.1292704 0.06949,0.1439365 0.03822,0.014666 0.06949,0.076553 0.06949,0.1375261 0,0.067658 0.02708,0.1108595 0.06949,0.1108595 0.04853,0 0.06949,0.048901 0.06949,0.1621434 0,0.089179 0.02084,0.1621434 0.04632,0.1621434 0.02548,0 0.04632,0.062541 0.04632,0.13898 0,0.092653 0.02317,0.1389801 0.06949,0.1389801 0.05018,0 0.06949,0.051474 0.06949,0.1853066 0,0.1338326 0.01931,0.1853066 0.06949,0.1853066 0.05334,0 0.06949,0.059195 0.06949,0.2547968 0,0.140138 0.01857,0.254797 0.04126,0.254797 0.02269,0 0.04934,0.160024 0.05922,0.355608 0.01137,0.224915 0.03876,0.362542 0.07455,0.374474 0.08137,0.02713 0.08137,1.940883 0,1.968008 -0.0358,0.012 -0.06319,0.149559 -0.07455,0.374474 -0.0099,0.195585 -0.03652,0.355609 -0.05922,0.355609 -0.02269,0 -0.04126,0.114661 -0.04126,0.254797 0,0.195601 -0.01614,0.254796 -0.06949,0.254796 -0.05018,0 -0.06949,0.05147 -0.06949,0.185307 0,0.133832 -0.01931,0.185306 -0.06949,0.185306 -0.05018,0 -0.06949,0.05147 -0.06949,0.185308 0,0.101915 -0.02084,0.185306 -0.04632,0.185306 -0.02548,0 -0.04632,0.05212 -0.04632,0.115811 0,0.07206 -0.02625,0.11581 -0.06949,0.11581 -0.04241,0 -0.06949,0.0432 -0.06949,0.110862 0,0.06098 -0.03128,0.122858 -0.06949,0.137525 -0.03822,0.01467 -0.06949,0.07944 -0.06949,0.143937 0,0.0645 -0.02084,0.117272 -0.04633,0.117272 -0.02548,0 -0.04632,0.05212 -0.04632,0.115811 0,0.07206 -0.02625,0.11581 -0.06949,0.11581 -0.03823,0 -0.06949,0.03128 -0.06949,0.06949 0,0.03822 -0.02046,0.06949 -0.04545,0.06949 -0.02499,0 -0.05853,0.05212 -0.07451,0.115811 -0.01598,0.0637 -0.04766,0.11581 -0.07038,0.11581 -0.02272,0 -0.04131,0.03126 -0.04131,0.06949 0,0.03822 -0.03126,0.06949 -0.06949,0.06949 -0.04324,0 -0.06949,0.04375 -0.06949,0.115823 0,0.07206 -0.02625,0.11581 -0.06949,0.11581 -0.03822,0 -0.06949,0.03126 -0.06949,0.06949 0,0.03822 -0.02084,0.06949 -0.04632,0.06949 -0.02548,0 -0.04632,0.03126 -0.04632,0.06949 0,0.03823 -0.02234,0.06949 -0.04963,0.06949 -0.07066,0 -0.164314,0.10294 -0.202171,0.222211 -0.01782,0.05614 -0.05185,0.102078 -0.0756,0.102078 -0.02377,0 -0.04321,0.03128 -0.04321,0.06949 0,0.03822 -0.03128,0.06949 -0.06949,0.06949 -0.03822,0 -0.06949,0.03128 -0.06949,0.06949 0,0.04007 -0.04187,0.06949 -0.09892,0.06949 -0.05441,0 -0.147223,0.05212 -0.20626,0.11581 -0.05903,0.0637 -0.129176,0.11581 -0.155873,0.11581 -0.02669,0 -0.04853,0.02234 -0.04853,0.04963 0,0.06414 -0.117859,0.181998 -0.181997,0.181998 -0.0273,0 -0.04963,0.03128 -0.04963,0.06949 0,0.04323 -0.04376,0.06949 -0.115823,0.06949 -0.07206,0 -0.11581,0.02625 -0.11581,0.06949 0,0.03822 -0.03128,0.06949 -0.06949,0.06949 -0.03822,0 -0.06949,0.02084 -0.06949,0.04632 0,0.02548 -0.05212,0.04632 -0.115822,0.04632 -0.07206,0 -0.115811,0.02625 -0.115811,0.06949 0,0.04632 -0.04632,0.06949 -0.13898,0.06949 -0.09266,0 -0.138979,0.02317 -0.138979,0.06949 0,0.04323 -0.04375,0.06949 -0.115823,0.06949 -0.0637,0 -0.115811,0.02084 -0.115811,0.04632 0,0.02548 -0.05212,0.04632 -0.11581,0.04632 -0.07206,0 -0.11581,0.02625 -0.11581,0.06949 0,0.05018 -0.05147,0.06949 -0.185307,0.06949 -0.133834,0 -0.185307,0.01931 -0.185307,0.06949 0,0.05018 -0.05147,0.06949 -0.185307,0.06949 -0.101915,0 -0.185305,0.02084 -0.185305,0.04632 0,0.02548 -0.0819,0.04632 -0.181999,0.04632 -0.100103,0 -0.213268,0.03126 -0.251487,0.06949 -0.0435,0.0435 -0.157364,0.06949 -0.304434,0.06949 -0.177954,0 -0.23494,0.01686 -0.23494,0.06949 0,0.05689 -0.07979,0.06949 -0.440106,0.06949 -0.2625163,0 -0.4401029,0.01869 -0.4401029,0.04632 0,0.02934 -0.3397298,0.04632 -0.9265324,0.04632 -0.5868038,0 -0.9265336,-0.01698 -0.9265336,-0.04632 z M 6.7294263,17.267995 c 0,-0.0386 0.041173,-0.06949 0.092656,-0.06949 0.050957,0 0.092656,-0.01944 0.092656,-0.04321 0,-0.02377 0.045934,-0.05778 0.1020775,-0.0756 0.1293569,-0.04106 0.2013285,-0.113024 0.2423844,-0.242386 0.017819,-0.05614 0.051845,-0.102077 0.075599,-0.102077 0.023767,0 0.04321,-0.06254 0.04321,-0.13898 0,-0.09266 0.023167,-0.13898 0.069489,-0.13898 0.05933,0 0.069489,-0.128686 0.069489,-0.880207 V 14.69686 H 5.5481037 c -1.0828875,0 -1.9688837,-0.01187 -1.9688837,-0.02647 0,-0.04546 0.1299067,-0.158834 0.1819976,-0.158834 0.027303,0 0.049633,-0.02904 0.049633,-0.06454 0,-0.03549 0.031277,-0.07654 0.069489,-0.09119 0.038224,-0.01467 0.069489,-0.06901 0.069489,-0.120772 0,-0.05176 0.020843,-0.09411 0.046322,-0.09411 0.025479,0 0.046322,-0.03126 0.046322,-0.06949 0,-0.03822 0.031277,-0.06949 0.069489,-0.06949 0.038224,0 0.069489,-0.03128 0.069489,-0.06949 0,-0.03822 0.031264,-0.06949 0.069489,-0.06949 0.038224,0 0.069489,-0.03128 0.069489,-0.06949 0,-0.03822 0.020843,-0.06949 0.046322,-0.06949 0.025479,0 0.046334,-0.05212 0.046334,-0.11581 0,-0.0637 0.020605,-0.11581 0.045797,-0.11581 0.082759,0 0.2321642,-0.15782 0.2321642,-0.245239 0,-0.09393 0.1035894,-0.218029 0.1819963,-0.218029 0.027303,0 0.049633,-0.03126 0.049633,-0.06949 0,-0.03822 0.018594,-0.06949 0.041311,-0.06949 0.022717,0 0.054381,-0.05212 0.070376,-0.115811 0.015982,-0.0637 0.04952,-0.115822 0.074512,-0.115822 0.024991,0 0.045447,-0.02904 0.045447,-0.06453 0,-0.03549 0.031264,-0.07654 0.069489,-0.09121 0.038224,-0.01467 0.069489,-0.05958 0.069489,-0.09982 0,-0.04024 0.05212,-0.121459 0.1158228,-0.180492 0.063703,-0.05903 0.1158228,-0.14962 0.1158228,-0.201301 0,-0.05168 0.031264,-0.105964 0.069489,-0.120634 0.038224,-0.01467 0.069489,-0.07944 0.069489,-0.143937 0,-0.07335 0.026016,-0.117272 0.069489,-0.117272 0.038224,0 0.069489,-0.03126 0.069489,-0.06949 0,-0.03822 0.020843,-0.06949 0.046322,-0.06949 0.025479,0 0.046322,-0.05212 0.046322,-0.115811 0,-0.07206 0.026253,-0.11581 0.069489,-0.11581 0.043235,0 0.069489,-0.04375 0.069489,-0.115823 0,-0.07206 0.026254,-0.11581 0.069489,-0.11581 0.038224,0 0.069489,-0.03126 0.069489,-0.06949 0,-0.03822 0.020843,-0.06949 0.046322,-0.06949 0.025479,0 0.046322,-0.05212 0.046322,-0.115823 0,-0.07206 0.026253,-0.11581 0.069489,-0.11581 0.04241,0 0.069489,-0.0432 0.069489,-0.110862 0,-0.06098 0.031264,-0.122858 0.069489,-0.137526 0.038224,-0.01467 0.069489,-0.07944 0.069489,-0.143937 0,-0.0645 0.020843,-0.117272 0.046322,-0.117272 0.025479,0 0.046334,-0.03126 0.046334,-0.06949 0,-0.03822 0.031264,-0.06949 0.069489,-0.06949 0.043235,0 0.069489,-0.043753 0.069489,-0.1158163 0,-0.063699 0.020456,-0.1158166 0.045447,-0.1158166 0.024991,0 0.05853,-0.052117 0.074512,-0.1158165 0.015982,-0.063699 0.047659,-0.1158166 0.070376,-0.1158166 0.022717,0 0.041311,-0.062541 0.041311,-0.1389799 0,-0.092653 0.023167,-0.1389801 0.069489,-0.1389801 0.043235,0 0.069489,-0.043753 0.069489,-0.1158166 0,-0.072064 0.026254,-0.1158165 0.069489,-0.1158165 0.043235,0 0.069489,-0.043753 0.069489,-0.1158166 0,-0.063699 0.020843,-0.1158165 0.046334,-0.1158165 0.025479,0 0.046322,-0.062541 0.046322,-0.13898 0,-0.092653 0.023167,-0.1389799 0.069489,-0.1389799 0.039411,0 0.069489,-0.041547 0.069489,-0.095962 0,-0.052779 0.031264,-0.1272327 0.069489,-0.1654522 0.038224,-0.038219 0.069489,-0.1305419 0.069489,-0.205161 0,-0.074619 0.020843,-0.1356708 0.046322,-0.1356708 0.025479,0 0.046322,-0.052117 0.046322,-0.1158166 0,-0.072064 0.026254,-0.1158165 0.069489,-0.1158165 0.050183,0 0.069489,-0.051474 0.069489,-0.1853066 0,-0.1338326 0.019306,-0.1853067 0.069489,-0.1853067 0.046322,0 0.069489,-0.046327 0.069489,-0.1389801 0,-0.076439 0.020843,-0.13898 0.046322,-0.13898 0.025479,0 0.046322,-0.070735 0.046322,-0.1571869 0,-0.096986 0.026616,-0.1673996 0.069489,-0.1838526 0.04361,-0.016737 0.069489,-0.087579 0.069489,-0.1902631 0,-0.089978 0.020843,-0.1635975 0.046322,-0.1635975 0.025479,0 0.046322,0.1042356 0.046322,0.2316335 0,0.1750119 0.016982,0.2316334 0.069489,0.2316334 0.046322,0 0.069489,0.046327 0.069489,0.1389799 0,0.076439 0.020843,0.1389801 0.046322,0.1389801 0.025479,0 0.046334,0.072964 0.046334,0.1621432 0,0.1132424 0.020955,0.1621434 0.069489,0.1621434 0.046322,0 0.069489,0.046327 0.069489,0.13898 0,0.092653 0.023167,0.13898 0.069489,0.13898 0.048533,0 0.069489,0.048901 0.069489,0.1621434 0,0.089178 0.020843,0.1621433 0.046322,0.1621433 0.025479,0 0.046322,0.062541 0.046322,0.13898 0,0.092653 0.023167,0.1389799 0.069489,0.1389799 0.043473,0 0.069489,0.043915 0.069489,0.1172711 0,0.064499 0.031277,0.1292704 0.069489,0.1439365 0.038224,0.014666 0.069489,0.076553 0.069489,0.1375261 0,0.060973 0.020843,0.1108595 0.046322,0.1108595 0.025479,0 0.046322,0.052117 0.046322,0.1158166 0,0.072064 0.026254,0.1158165 0.069489,0.1158165 0.046322,0 0.069489,0.046327 0.069489,0.13898 0,0.092653 0.023167,0.13898 0.069489,0.13898 0.043235,0 0.069489,0.043753 0.069489,0.1158165 0,0.063699 0.020843,0.1158166 0.046322,0.1158166 0.025479,0 0.046334,0.052117 0.046334,0.1158165 0,0.072064 0.026254,0.1158166 0.069489,0.1158166 0.043235,0 0.069489,0.043753 0.069489,0.1158165 0,0.072064 0.026254,0.1158166 0.069489,0.1158166 0.044185,0 0.069489,0.04445 0.069489,0.122086 0,0.07071 0.048733,0.167247 0.1158103,0.22942 0.0637,0.05903 0.11581,0.150024 0.11581,0.202201 0,0.05344 0.03034,0.09487 0.06949,0.09487 0.04323,0 0.06949,0.04375 0.06949,0.11581 0,0.0637 0.01858,0.115823 0.04131,0.115823 0.02272,0 0.05438,0.05212 0.07038,0.11581 0.01598,0.0637 0.04952,0.115811 0.07451,0.115811 0.02499,0 0.04545,0.03128 0.04545,0.06949 0,0.03823 0.03126,0.06949 0.06949,0.06949 0.04324,0 0.06949,0.04375 0.06949,0.11581 0,0.0637 0.02084,0.115811 0.04632,0.115811 0.02548,0 0.04632,0.03128 0.04632,0.06949 0,0.03822 0.03126,0.06949 0.06949,0.06949 0.04632,0 0.06949,0.04632 0.06949,0.13898 0,0.09266 0.02317,0.13898 0.06949,0.13898 0.04007,0 0.06949,0.04187 0.06949,0.09892 0,0.05441 0.05212,0.147223 0.11581,0.206258 0.0637,0.05903 0.11581,0.140255 0.11581,0.18049 0,0.04024 0.03128,0.08516 0.06949,0.09983 0.03822,0.01467 0.06949,0.05571 0.06949,0.09119 0,0.03549 0.02046,0.06454 0.04545,0.06454 0.02499,0 0.05853,0.05212 0.07451,0.11581 0.01598,0.0637 0.04766,0.11581 0.07038,0.11581 0.02272,0 0.0413,0.03128 0.0413,0.06949 0,0.03822 0.02234,0.06949 0.04963,0.06949 0.08176,0 0.181997,0.12576 0.181997,0.228325 0,0.05442 0.03009,0.09597 0.06949,0.09597 0.03822,0 0.06949,0.03127 0.06949,0.06949 0,0.03822 0.03126,0.06949 0.06949,0.06949 0.03823,0 0.06949,0.03126 0.06949,0.06949 0,0.03822 0.02084,0.06949 0.04632,0.06949 0.02548,0 0.04632,0.05212 0.04632,0.11581 0,0.07206 0.02625,0.115823 0.06949,0.115823 0.03822,0 0.06949,0.03126 0.06949,0.06949 0,0.03822 0.03128,0.06949 0.06949,0.06949 0.03822,0 0.06949,0.02234 0.06949,0.04963 0,0.06414 0.11786,0.181999 0.181999,0.181999 0.0273,0 0.04963,0.05212 0.04963,0.115811 0,0.07206 0.02625,0.115822 0.06949,0.115822 0.03822,0 0.06949,0.03126 0.06949,0.06949 0,0.03822 0.02084,0.06949 0.04632,0.06949 0.02548,0 0.04633,0.02084 0.04633,0.04632 0,0.03015 -0.678196,0.04632 -1.941933,0.04632 -1.068062,0 -1.9749058,0.01266 -2.0152095,0.02812 -0.062429,0.02395 -0.073275,0.133703 -0.073275,0.741227 0,0.444521 0.017444,0.713107 0.046322,0.713107 0.025479,0 0.046322,0.09382 0.046322,0.20847 0,0.154422 0.018019,0.20847 0.069489,0.20847 0.043235,0 0.069489,0.04375 0.069489,0.11581 0,0.0637 0.020843,0.115823 0.046322,0.115823 0.025479,0 0.046322,0.03126 0.046322,0.06949 0,0.03822 0.031264,0.06949 0.069489,0.06949 0.038224,0 0.069489,0.03126 0.069489,0.06949 0,0.03822 0.031264,0.06949 0.069489,0.06949 0.038224,0 0.069489,0.02084 0.069489,0.04632 0,0.02548 0.049883,0.04632 0.110862,0.04632 0.060979,0 0.1228579,0.03126 0.1375266,0.06949 0.022005,0.05736 0.1442005,0.06949 0.6998549,0.06949 0.567508,0 0.673193,-0.01087 0.673193,-0.06949 0,-0.05251 0.05662,-0.06949 0.231632,-0.06949 0.127399,0 0.231634,-0.02084 0.231634,-0.04632 0,-0.02548 0.06254,-0.04632 0.13898,-0.04632 0.09266,0 0.13898,-0.02317 0.13898,-0.06949 0,-0.04323 0.04375,-0.06949 0.11581,-0.06949 0.07206,0 0.115823,-0.02625 0.115823,-0.06949 0,-0.04324 0.04375,-0.06949 0.11581,-0.06949 0.0637,0 0.115823,-0.02084 0.115823,-0.04632 0,-0.02548 0.03128,-0.04632 0.06949,-0.04632 0.03822,0 0.06949,-0.03126 0.06949,-0.06949 0,-0.03822 0.03128,-0.06949 0.06949,-0.06949 0.03823,0 0.06949,-0.03126 0.06949,-0.06949 0,-0.03823 0.03128,-0.06949 0.06949,-0.06949 0.03822,0 0.06949,-0.01944 0.06949,-0.04321 0,-0.02377 0.04593,-0.05778 0.102078,-0.0756 0.129357,-0.04106 0.201331,-0.113024 0.242387,-0.242385 0.01782,-0.05614 0.05184,-0.102077 0.0756,-0.102077 0.02377,0 0.04321,-0.03126 0.04321,-0.06949 0,-0.03822 0.03126,-0.06949 0.06949,-0.06949 0.03822,0 0.06949,-0.03126 0.06949,-0.06949 0,-0.03822 0.03126,-0.06949 0.06949,-0.06949 0.04324,0 0.06949,-0.04375 0.06949,-0.11581 0,-0.0637 0.02084,-0.115811 0.04632,-0.115811 0.02548,0 0.04632,-0.03126 0.04632,-0.06949 0,-0.03823 0.03128,-0.06949 0.06949,-0.06949 0.04323,0 0.06949,-0.04375 0.06949,-0.115823 0,-0.07206 0.02625,-0.11581 0.06949,-0.11581 0.04323,0 0.06949,-0.04375 0.06949,-0.11581 0,-0.0637 0.02084,-0.115823 0.04633,-0.115823 0.02548,0 0.04632,-0.06254 0.04632,-0.138981 0,-0.09266 0.02317,-0.13898 0.06949,-0.13898 0.0502,0 0.06949,-0.05147 0.06949,-0.185307 0,-0.133832 0.01931,-0.185306 0.06949,-0.185306 0.04633,0 0.06949,-0.04632 0.06949,-0.13898 0,-0.07644 0.02084,-0.13898 0.04632,-0.13898 0.02548,0 0.04633,-0.104239 0.04633,-0.231634 0,-0.175011 0.01698,-0.231633 0.06949,-0.231633 0.05452,0 0.06949,-0.06379 0.06949,-0.296167 0,-0.225845 0.01719,-0.302765 0.07241,-0.323956 0.06275,-0.02408 0.07048,-0.140163 0.0579,-0.869784 -0.01075,-0.621845 -0.02965,-0.847026 -0.07241,-0.861235 -0.03831,-0.01273 -0.05791,-0.119834 -0.05791,-0.316502 0,-0.233349 -0.01493,-0.297262 -0.06949,-0.297262 -0.05018,0 -0.06949,-0.05147 -0.06949,-0.185307 0,-0.101915 -0.02084,-0.185307 -0.04633,-0.185307 -0.02548,0 -0.04632,-0.08339 -0.04632,-0.1853064 0,-0.1338326 -0.01931,-0.1853067 -0.06949,-0.1853067 -0.04632,0 -0.06949,-0.046327 -0.06949,-0.13898 0,-0.092653 -0.02317,-0.1389801 -0.06949,-0.1389801 -0.04323,0 -0.06949,-0.043753 -0.06949,-0.1158166 0,-0.063699 -0.02084,-0.1158165 -0.04632,-0.1158165 -0.02548,0 -0.04633,-0.052117 -0.04633,-0.1158166 0,-0.072064 -0.02625,-0.1158165 -0.06949,-0.1158165 -0.04633,0 -0.06949,-0.046327 -0.06949,-0.13898 0,-0.092653 -0.02317,-0.1389801 -0.06949,-0.1389801 -0.03946,0 -0.06949,-0.041574 -0.06949,-0.096217 0,-0.09995 -0.233389,-0.3670498 -0.320723,-0.3670498 -0.02744,0 -0.04989,-0.052117 -0.04989,-0.1158165 0,-0.0637 -0.02084,-0.1158166 -0.04632,-0.1158166 -0.02548,0 -0.04632,-0.03127 -0.04632,-0.06949 0,-0.038219 -0.03128,-0.06949 -0.06949,-0.06949 -0.03822,0 -0.06949,-0.031271 -0.06949,-0.06949 0,-0.038219 -0.03128,-0.06949 -0.06949,-0.06949 -0.03823,0 -0.06949,-0.022336 -0.06949,-0.049635 0,-0.064138 -0.11786,-0.1819976 -0.181999,-0.1819976 -0.0273,0 -0.04963,-0.03127 -0.04963,-0.06949 0,-0.038219 -0.03126,-0.06949 -0.06949,-0.06949 -0.03822,0 -0.06949,-0.022336 -0.06949,-0.049635 0,-0.064138 -0.11786,-0.1819978 -0.181997,-0.1819978 -0.0273,0 -0.04963,-0.03127 -0.04963,-0.06949 0,-0.038219 -0.03128,-0.06949 -0.06949,-0.06949 -0.03823,0 -0.06949,-0.020449 -0.06949,-0.045444 0,-0.024994 -0.05212,-0.058525 -0.115823,-0.074512 -0.0637,-0.015988 -0.11581,-0.047655 -0.11581,-0.070372 0,-0.022717 -0.03128,-0.041305 -0.06949,-0.041305 -0.03822,0 -0.06949,-0.03127 -0.06949,-0.06949 0,-0.043239 -0.04376,-0.06949 -0.115823,-0.06949 -0.07206,0 -0.115811,-0.026252 -0.115811,-0.06949 0,-0.038219 -0.03126,-0.06949 -0.06949,-0.06949 -0.03822,0 -0.06949,-0.020847 -0.06949,-0.046327 0,-0.02548 -0.05212,-0.046327 -0.11581,-0.046327 -0.07206,0 -0.11581,-0.026252 -0.11581,-0.06949 0,-0.043753 -0.04412,-0.06949 -0.119122,-0.06949 -0.06551,0 -0.150396,-0.03127 -0.188615,-0.06949 -0.03822,-0.038219 -0.120122,-0.06949 -0.181999,-0.06949 -0.06188,0 -0.112512,-0.020847 -0.112512,-0.046327 0,-0.02548 -0.06254,-0.046327 -0.13898,-0.046327 -0.09265,0 -0.13898,-0.023163 -0.13898,-0.06949 0,-0.048797 -0.04927,-0.06949 -0.165452,-0.06949 -0.09099,0 -0.196722,-0.03127 -0.2349414,-0.06949 -0.044742,-0.044679 -0.1592481,-0.069468 -0.3210239,-0.069468 -0.1383176,0 -0.2514875,-0.020847 -0.2514875,-0.046327 0,-0.029542 -0.3860552,-0.046327 -1.0655122,-0.046327 -0.6794584,0 -1.0655135,0.016784 -1.0655135,0.046327 0,0.026134 -0.1312588,0.046327 -0.301123,0.046327 -0.2367814,0 -0.3011231,0.014847 -0.3011231,0.06949 0,0.050188 -0.051482,0.06949 -0.1853077,0.06949 -0.1338328,0 -0.1853064,0.019302 -0.1853064,0.06949 0,0.050188 -0.05147,0.06949 -0.1853065,0.06949 -0.1019151,0 -0.1853077,0.020847 -0.1853077,0.046327 0,0.02548 -0.05277,0.046327 -0.1172723,0.046327 -0.064503,0 -0.1292707,0.031271 -0.1439369,0.06949 -0.01467,0.038219 -0.076549,0.06949 -0.1375254,0.06949 -0.067664,0 -0.110862,0.027081 -0.110862,0.06949 0,0.043238 -0.04376,0.06949 -0.1158228,0.06949 -0.063703,0 -0.1158103,0.020847 -0.1158103,0.046327 0,0.02548 -0.05212,0.046327 -0.1158103,0.046327 -0.072063,0 -0.1158228,0.026251 -0.1158228,0.06949 0,0.038219 -0.031264,0.06949 -0.069489,0.06949 -0.038224,0 -0.069489,0.031271 -0.069489,0.06949 0,0.043238 -0.043747,0.06949 -0.1158103,0.06949 -0.063703,0 -0.1158103,0.020847 -0.1158103,0.046327 0,0.02548 -0.031277,0.046327 -0.069489,0.046327 -0.038224,0 -0.069489,0.031271 -0.069489,0.06949 0,0.038219 -0.031277,0.06949 -0.069489,0.06949 -0.038224,0 -0.069489,0.03127 -0.069489,0.06949 0,0.043239 -0.043748,0.06949 -0.1158228,0.06949 -0.072063,0 -0.1158228,0.026252 -0.1158228,0.06949 0,0.038219 -0.022455,0.06949 -0.049895,0.06949 -0.06484,0 -0.3207238,0.2558858 -0.3207238,0.320723 0,0.027439 -0.022342,0.04989 -0.049633,0.04989 -0.070663,0 -0.1643149,0.1029397 -0.2021707,0.2222125 -0.017819,0.056141 -0.051845,0.1020737 -0.075599,0.1020737 -0.023767,0 -0.04321,0.031271 -0.04321,0.06949 0,0.038219 -0.031277,0.06949 -0.069489,0.06949 -0.038224,0 -0.069489,0.03127 -0.069489,0.06949 0,0.038219 -0.031277,0.06949 -0.069489,0.06949 -0.043235,0 -0.069489,0.043753 -0.069489,0.1158165 0,0.063699 -0.020843,0.1158165 -0.046322,0.1158165 -0.025479,0 -0.046322,0.031271 -0.046322,0.06949 0,0.038219 -0.031277,0.06949 -0.069489,0.06949 -0.043235,0 -0.069489,0.043753 -0.069489,0.1158165 0,0.072064 -0.026254,0.1158166 -0.069489,0.1158166 -0.043235,0 -0.069489,0.043753 -0.069489,0.1158165 0,0.063699 -0.020843,0.1158166 -0.046322,0.1158166 -0.025479,0 -0.046334,0.062541 -0.046334,0.13898 0,0.092653 -0.023167,0.1389801 -0.069489,0.1389801 -0.04241,0 -0.069489,0.043203 -0.069489,0.1108607 0,0.060973 -0.031264,0.1228591 -0.069489,0.137526 -0.043623,0.016737 -0.069489,0.087579 -0.069489,0.1902631 0,0.089978 -0.020843,0.1635975 -0.046322,0.1635975 -0.025479,0 -0.046322,0.08339 -0.046322,0.185306 0,0.133833 -0.019306,0.185308 -0.069489,0.185308 -0.054519,0 -0.069489,0.06379 -0.069489,0.296165 0,0.224889 -0.017294,0.302805 -0.071875,0.323748 -0.062704,0.02407 -0.070089,0.167563 -0.057905,1.124568 0.010496,0.826294 0.028253,1.101737 0.071875,1.116239 0.035863,0.01187 0.057905,0.105964 0.057905,0.247026 0,0.171581 0.017144,0.227772 0.069489,0.227772 0.050183,0 0.069489,0.05147 0.069489,0.185308 0,0.101915 0.020843,0.185306 0.046322,0.185306 0.025479,0 0.046322,0.06254 0.046322,0.13898 0,0.09266 0.023167,0.13898 0.069489,0.13898 0.043235,0 0.069489,0.04375 0.069489,0.11581 0,0.07206 0.026253,0.115823 0.069489,0.115823 0.046322,0 0.069489,0.04632 0.069489,0.13898 0,0.07644 0.020843,0.138981 0.046334,0.138981 0.025479,0 0.046322,0.05212 0.046322,0.115823 0,0.07206 0.026254,0.11581 0.069489,0.11581 0.043235,0 0.069489,0.04375 0.069489,0.11581 0,0.07206 0.026254,0.115824 0.069489,0.115824 0.043235,0 0.069489,0.04375 0.069489,0.115809 0,0.0637 0.020843,0.115812 0.046322,0.115812 0.025479,0 0.046322,0.03128 0.046322,0.06949 0,0.03823 0.031264,0.06949 0.069489,0.06949 0.038224,0 0.069489,0.03128 0.069489,0.06949 0,0.03822 0.031264,0.06949 0.069489,0.06949 0.039486,0 0.069489,0.04159 0.069489,0.09631 0,0.0988 0.3698507,0.505936 0.4596087,0.505936 0.027491,0 0.049983,0.03128 0.049983,0.06949 0,0.04323 0.04376,0.06949 0.1158228,0.06949 0.072063,0 0.1158103,0.02625 0.1158103,0.06949 0,0.03823 0.031277,0.06949 0.069489,0.06949 0.038224,0 0.069489,0.02084 0.069489,0.04632 0,0.02548 0.05212,0.04632 0.1158228,0.04632 0.072063,0 0.1158103,0.02625 0.1158103,0.06949 0,0.04323 0.043747,0.06949 0.1158103,0.06949 0.072063,0 0.1158228,0.02625 0.1158228,0.06949 0,0.04632 0.046322,0.06949 0.1389799,0.06949 0.076436,0 0.1389798,0.02084 0.1389798,0.04632 0,0.02548 0.1042393,0.04632 0.2316344,0.04632 0.1750125,0 0.2316343,0.01698 0.2316343,0.06949 0,0.05857 0.1055263,0.06949 0.6717347,0.06949 0.5662159,0 0.6717372,-0.01087 0.6717372,-0.06949 z"
       id="path1" /></g></svg>
