<?xml version="1.0" encoding="UTF-8" standalone="no"?>
<svg
   width="23.500996"
   height="22.644333"
   viewBox="0 0 23.500996 22.644333"
   fill="none"
   version="1.1"
   id="svg3"
   xml:space="preserve"
   xmlns="http://www.w3.org/2000/svg"
   xmlns:svg="http://www.w3.org/2000/svg"><defs
     id="defs3" /><path
     style="fill:#fefefe;fill-opacity:1;stroke-width:0.0605696"
     d="M 0.04630172,22.610034 C 0.02746772,22.591204 0.56955722,21.776736 1.2509341,20.8001 L 2.4898125,19.024408 3.4404436,18.996098 4.3910732,18.967788 4.8077471,18.8119 C 5.540399,18.537803 6.0361802,18.124166 6.6211073,17.298994 l 0.24688,-0.348275 3.1831127,0.0028 3.18312,0.0028 0.436337,0.633231 0.436338,0.633226 H 10.815924 7.5249588 l -0.2534372,0.335651 c -0.5799371,0.768127 -1.2534862,1.291009 -1.9750799,1.533272 -0.4055418,0.13616 -1.1988803,0.250994 -1.7339366,0.250994 H 3.2153193 L 2.4114881,21.493515 1.6076569,22.644331 H 0.84409532 c -0.4199545,0 -0.7789578,-0.01541 -0.7977936,-0.03424 z M 19.412311,22.588054 c -0.235972,-0.05695 -0.449797,-0.169582 -0.626226,-0.329874 -0.07792,-0.0708 -1.206615,-1.648253 -2.508214,-3.505466 L 13.911324,15.375963 H 9.593868 5.2764135 L 5.0029146,15.731391 C 4.7139149,16.10696 4.3204873,16.396804 3.8736463,16.563338 3.5206459,16.694901 1.5834215,16.756628 1.0810148,16.652328 0.51750492,16.535351 0.00508892,15.979999 0.00111582,15.481953 L 2.5823318e-5,15.315387 H 2.6347979 c 1.5621771,0 2.6347721,-0.02264 2.6347721,-0.0557 0,-0.10802 0.6250993,-0.737981 0.8812196,-0.888073 0.4975351,-0.291579 0.5089653,-0.292575 3.7372134,-0.326336 l 3.073914,-0.03217 -0.523807,-0.741981 -0.523806,-0.741974 H 7.4084208 2.9025343 L 2.6685278,12.409774 C 2.2785021,12.21081 1.9382497,11.691869 1.9382497,11.295992 v -0.09859 l 4.5108543,-0.0155 4.510854,-0.01552 -0.486649,-0.69655 -0.48665,-0.6965446 -4.4936177,-0.03026 -4.49361768,-0.03026 -0.2257121,-0.112226 C 0.34943552,9.3896004 0.00169812,8.8749314 3.6502332e-4,8.4559504 L 1.8710006e-8,8.3499514 H 4.8122969 c 3.3292215,0 4.9112091,0.02095 5.1332651,0.06804 0.407258,0.08632 0.717102,0.243178 1.018832,0.515768 0.130977,0.118328 0.979927,1.2755396 1.88657,2.5715826 0.906638,1.296042 1.665115,2.356441 1.685498,2.356441 0.02041,0 0.904966,-1.240163 1.96574,-2.755916 l 1.928673,-2.7559086 h 2.535074 2.535047 l -0.0011,0.166567 c -0.0017,0.220699 -0.189354,0.618383 -0.370067,0.78451 -0.325999,0.299699 -0.476238,0.320876 -2.276576,0.320947 l -1.682742,6e-5 -1.823349,2.6195656 c -1.002842,1.440762 -1.857915,2.675699 -1.900167,2.744315 l -0.07681,0.12475 0.41621,0.581025 c 0.228919,0.31956 0.431592,0.571576 0.45039,0.560033 0.01878,-0.01156 0.795597,-1.109811 1.72623,-2.440601 l 1.692057,-2.419612 0.30739,0.03114 c 0.369752,0.03745 0.876838,-0.09674 1.203523,-0.318428 0.126241,-0.08566 0.242153,-0.14312 0.257594,-0.127676 0.01546,0.01546 -0.957617,1.476684 -2.162359,3.247213 -1.204737,1.770527 -2.176958,3.254248 -2.160495,3.297158 0.01649,0.04289 0.50412,0.756698 1.083681,1.586197 1.756992,2.514729 2.409496,3.462784 2.409496,3.500915 0,0.05018 -0.957673,0.03402 -1.181104,-0.01992 z M 3.6188091,0.00644983 c 4.2724233,-0.0086 11.2636589,-0.0086 15.5360809,0 4.272418,0.0086 0.776803,0.015621 -7.768037,0.015621 -8.5448452,0 -12.04046026,-0.00702 -7.7680439,-0.015621 z"
     id="path10" /></svg>
