<?xml version="1.0" encoding="UTF-8" standalone="no"?>
<svg
   width="22.818651"
   height="15.39257"
   viewBox="0 0 22.818651 15.39257"
   fill="none"
   version="1.1"
   id="svg3"
   xml:space="preserve"
   xmlns="http://www.w3.org/2000/svg"
   xmlns:svg="http://www.w3.org/2000/svg"><defs
     id="defs3" /><path
     style="fill:#e9e9e9;fill-opacity:1;stroke-width:0.0516173"
     d="m 0.56008079,15.357168 c -0.017539,-0.01754 -0.1449392,-0.05977 -0.2831401,-0.09388 l -0.2512798,-0.06202 -0.014737,-0.564473 c -0.01872,-0.716152 -0.0074,-0.747855 0.2088747,-0.587957 0.091948,0.06797 0.2321619,0.151831 0.3115667,0.186356 0.2005106,0.08718 0.65994101,0.07849 0.84948731,-0.01606 0.2106826,-0.105106 0.4772254,-0.382828 0.4772254,-0.497246 v -0.09193 l -0.6830191,-0.01441 -0.68301761,-0.0144 -0.0027,-0.350202 c -0.00171,-0.192609 0.013798,-0.377128 0.034125,-0.410037 0.024822,-0.04014 0.2506013,-0.0602 0.68587111,-0.06092 0.3568879,-6.75e-4 0.6480521,-0.01351 0.6470336,-0.02871 C 1.852531,12.693639 1.6193856,12.453063 1.4631293,12.34544 1.3310392,12.25446 1.226316,12.233293 0.90824439,12.233293 c -0.2269684,0 -0.3920668,0.02172 -0.3920668,0.05162 0,0.02841 -0.024794,0.05162 -0.055064,0.05162 -0.030284,0 -0.1310516,0.05796 -0.2239229,0.12879 -0.092873,0.07084 -0.1842334,0.113427 -0.2030227,0.09464 C 0.01537699,12.541173 -1.3512197e-8,12.262054 -1.3512197e-8,11.939698 V 11.353595 L 0.11614419,11.309685 c 0.333696,-0.126159 0.5192991,-0.160281 0.8682496,-0.159595 0.59935831,10e-4 1.07379431,0.20052 1.51212671,0.635366 0.3148995,0.312392 0.507706,0.689943 0.6029016,1.180592 0.1912532,0.985748 -0.5027131,2.027272 -1.5509031,2.327641 -0.2161619,0.06193 -0.94313231,0.108648 -0.98828851,0.06349 z m 2.95682861,-0.08602 c -0.025334,-0.06681 -0.059587,-0.268234 -0.07613,-0.447591 l -0.030085,-0.3261 0.1678479,-0.07013 c 0.092318,-0.03858 0.1937966,-0.12411 0.2255105,-0.190071 0.097894,-0.203628 0.1703173,-1.076728 0.1703173,-2.053349 v -0.932902 l 1.5098024,0.01365 1.5097982,0.01366 v 1.987261 1.98726 H 6.4519928 5.9100111 l -0.013656,-1.537686 -0.013656,-1.537685 -0.4250708,0.01498 -0.4250708,0.01498 -0.038151,0.9033 c -0.050085,1.185844 -0.1377088,1.580003 -0.4200608,1.889612 -0.2133455,0.23394 -0.3766942,0.307051 -0.8185544,0.366363 l -0.192808,0.02587 z m 4.3803657,-2.005511 v -2.013069 h 0.5419817 0.5419778 v 0.783989 0.783993 l 0.09111,-0.100071 c 0.05011,-0.05504 0.182813,-0.227815 0.294895,-0.383959 0.20335,-0.283288 0.592813,-0.776977 0.6515194,-0.825873 0.01703,-0.01422 0.05851,-0.07808 0.09215,-0.141947 l 0.06117,-0.116144 h 0.669205 c 0.368063,0 0.669207,0.01835 0.669207,0.0408 0,0.03479 -0.390273,0.504612 -1.29529,1.55933 -0.109615,0.127751 -0.199827,0.261759 -0.200457,0.297794 -6.75e-4,0.03603 0.370423,0.512202 0.824565,1.05815 0.454144,0.545952 0.825789,1.010056 0.825875,1.031349 1.03e-4,0.02128 -0.308261,0.03871 -0.685216,0.03871 h -0.68538 L 9.9222846,14.801223 C 9.7175176,14.538621 9.5317966,14.30054 9.5095716,14.27215 9.4873416,14.24376 9.3651836,14.086523 9.2381026,13.922733 l -0.231052,-0.297798 -0.01422,0.826874 -0.01422,0.826872 H 8.4379012 7.8971982 Z m 3.9508869,1.845314 c 0.0199,-0.09226 0.05659,-0.175498 0.08152,-0.184962 0.02492,-0.0095 0.04533,-0.04405 0.04533,-0.07686 0,-0.08284 0.52016,-1.443208 0.574888,-1.503492 0.02449,-0.02698 0.04452,-0.08152 0.04452,-0.121237 0,-0.03972 0.03721,-0.157011 0.08269,-0.260666 0.103569,-0.236041 0.148127,-0.347784 0.229544,-0.575589 0.03552,-0.09936 0.09374,-0.250345 0.129387,-0.335511 0.03565,-0.08516 0.105846,-0.27099 0.155995,-0.412937 0.05016,-0.141948 0.113257,-0.287121 0.140241,-0.322607 0.03415,-0.04492 0.226381,-0.06452 0.632846,-0.06452 h 0.583799 l 0.03255,0.116144 c 0.03102,0.11081 0.04723,0.15439 0.167811,0.451649 0.02881,0.07098 0.09275,0.233568 0.142133,0.361323 0.04939,0.127751 0.108278,0.278732 0.130881,0.335511 0.0226,0.05678 0.138462,0.370352 0.257464,0.696829 0.246313,0.675746 0.267109,0.729753 0.380648,0.988528 0.04548,0.103655 0.08269,0.214298 0.08269,0.245883 0,0.03156 0.02324,0.103555 0.05162,0.159952 0.02841,0.0564 0.07326,0.146129 0.0997,0.199415 0.02644,0.05329 0.06387,0.181036 0.08317,0.283895 l 0.03508,0.187012 h -0.560931 -0.560933 l -0.05943,-0.141948 c -0.03269,-0.07807 -0.08947,-0.229052 -0.126202,-0.335514 l -0.06677,-0.193563 h -0.702335 -0.702339 l -0.09136,0.219372 c -0.05025,0.120654 -0.116727,0.271636 -0.147701,0.335511 l -0.05633,0.116146 h -0.563169 -0.563167 z m 2.420798,-1.522707 c -0.01693,-0.07808 -0.04977,-0.188403 -0.07294,-0.245182 -0.07797,-0.191006 -0.200568,-0.56697 -0.217214,-0.666126 l -0.01649,-0.09835 -0.05852,0.124153 c -0.03218,0.06828 -0.100839,0.263517 -0.152548,0.433853 -0.05172,0.170337 -0.112488,0.33177 -0.135035,0.35874 -0.02256,0.02698 -0.04101,0.09084 -0.04101,0.141947 v 0.09292 h 0.362272 0.362304 z m 2.334406,1.65605 c -0.01892,-0.01892 -0.03441,-0.924807 -0.03441,-2.013069 v -1.978657 h 1.000608 c 1.131194,0 1.40752,0.05425 1.704869,0.334685 0.254805,0.24031 0.353547,0.470215 0.38052,0.885985 0.06533,1.007142 -0.495466,1.51504 -1.672854,1.51504 h -0.32918 v 0.645214 0.645211 h -0.507571 c -0.279164,0 -0.523053,-0.01548 -0.541979,-0.03441 z m 1.830702,-2.335675 c 0.16897,-0.20867 0.0961,-0.612566 -0.128719,-0.713547 -0.06075,-0.02728 -0.226587,-0.04727 -0.368535,-0.04441 l -0.258086,0.0053 -0.01501,0.457794 -0.01501,0.457798 0.344507,-0.02192 c 0.281928,-0.01795 0.362007,-0.04354 0.440844,-0.14091 z m 2.455214,2.337368 c -0.01987,-0.01987 -0.0361,-0.717452 -0.0361,-1.550206 v -1.514109 h -0.384085 c -0.213732,0 -0.399011,-0.02415 -0.417736,-0.05445 -0.02883,-0.04666 -0.04546,-0.494188 -0.02915,-0.784322 l 0.0051,-0.09033 h 1.395671 1.395671 l -0.01491,0.451648 -0.01491,0.451653 -0.387129,0.0258 -0.38713,0.0258 -0.0258,1.522707 -0.0258,1.522707 -0.518782,0.01461 c -0.28533,0.008 -0.535028,-0.0017 -0.554884,-0.02152 z M 0.05147149,9.598999 c 0,-0.04821 0.1165141,-0.252286 0.2200026,-0.385312 C 0.45300899,8.980325 1.0838152,8.0361 1.0838152,7.997731 c 0,-0.02679 0.017937,-0.04866 0.039872,-0.04866 0.02192,0 0.083655,-0.08129 0.1371683,-0.180659 0.053513,-0.09936 0.1168555,-0.180661 0.1407813,-0.180661 0.023912,0 0.043485,-0.02422 0.043485,-0.05383 0,-0.02962 0.092915,-0.179589 0.2064679,-0.333309 0.1135554,-0.153715 0.2064679,-0.303704 0.2064679,-0.333308 0,-0.02962 0.018208,-0.05383 0.040483,-0.05383 0.022262,0 0.084395,-0.07549 0.1380644,-0.167754 0.053655,-0.09226 0.1109381,-0.17937 0.1272679,-0.193566 0.01633,-0.01422 0.05293,-0.06536 0.081308,-0.113698 0.028392,-0.04833 0.3071243,-0.46117 0.6194051,-0.917405 0.312285,-0.456237 0.5910169,-0.868645 0.6194065,-0.91647 0.028392,-0.04782 0.08081,-0.118776 0.1164713,-0.157675 0.035675,-0.0389 0.09108,-0.119714 0.1231286,-0.179589 0.032048,-0.05987 0.078804,-0.133555 0.1039252,-0.16373 C 3.9149426,3.898553 4.6226312,2.860589 5.032668,2.235989 5.2596933,1.890165 5.4802834,1.606043 5.5228663,1.604607 c 0.06468,-0.002 0.3894992,0.41438 0.4593892,0.58913 0.01138,0.02839 0.034722,0.06323 0.051906,0.07742 0.051636,0.04262 0.3145752,0.404007 0.3145752,0.432348 0,0.02132 0.6642582,0.998734 0.8119342,1.194728 0.021849,0.029 0.2000611,0.289522 0.3959985,0.578898 0.1959373,0.28938 0.3714495,0.516749 0.3900269,0.505268 0.018577,-0.01152 0.171838,-0.225531 0.3405793,-0.475664 0.168743,-0.250133 0.318421,-0.466399 0.332614,-0.480595 0.01422,-0.01422 0.188403,-0.269699 0.387129,-0.567787 0.198727,-0.298091 0.378741,-0.549723 0.400034,-0.559186 0.02128,-0.0095 0.03871,-0.03842 0.03871,-0.06434 0,-0.02593 0.111748,-0.204002 0.248325,-0.395733 C 9.9011386,2.148436 10.48979,1.288925 11.214308,0.21937112 11.296048,0.09871762 11.386579,1.5213774e-8 11.415502,1.5213774e-8 c 0.06791,0 0.245849,0.212888904786226 0.248082,0.296795804786226 10e-4,0.03549 0.01993,0.064523 0.0422,0.064523 0.02226,0 0.08498,0.07549 0.139374,0.1677569 0.05438,0.092261 0.117922,0.1909833 0.141208,0.2193723 0.08233,0.100398 0.814517,1.16758598 0.814517,1.18719298 0,0.01095 0.174515,0.270927 0.387814,0.577741 0.213297,0.30681 0.410422,0.592679 0.438059,0.635262 0.02762,0.04259 0.224765,0.328454 0.438062,0.635264 0.213299,0.306811 0.387814,0.577802 0.387814,0.602202 0,0.02438 0.01741,0.0521 0.03871,0.06156 0.02128,0.0095 0.119815,0.138676 0.21893,0.287134 l 0.180221,0.269927 0.103669,-0.11613 c 0.05703,-0.06387 0.266273,-0.359546 0.464995,-0.657058 0.198727,-0.297508 0.378741,-0.54867 0.400034,-0.55813 0.02128,-0.0095 0.03872,-0.03771 0.03872,-0.06276 0,-0.02506 0.174206,-0.290272 0.387129,-0.589379 0.21292,-0.299108 0.38713,-0.567022 0.38713,-0.595364 0,-0.02834 0.01794,-0.05152 0.03987,-0.05152 0.02192,0 0.08366,-0.08129 0.137169,-0.180662 0.05351,-0.09936 0.116855,-0.180661 0.140781,-0.180661 0.02391,0 0.04349,-0.02418 0.04349,-0.05371 0,-0.08331 0.218809,-0.359229 0.284877,-0.359229 0.03245,0 0.09007,0.05806 0.128064,0.129046 0.03798,0.07097 0.08836,0.129046 0.111948,0.129046 0.02361,0 0.0429,0.02243 0.0429,0.04986 0,0.02742 0.174209,0.294576 0.387128,0.593684 0.21292,0.299107 0.387129,0.565085 0.387129,0.59106 0,0.02597 0.0174,0.05496 0.03871,0.06444 0.02128,0.0095 0.201307,0.260584 0.400034,0.558046 0.198726,0.297464 0.379205,0.564583 0.401068,0.5936 0.142913,0.18967 0.811933,1.173071 0.811933,1.193463 0,0.0138 0.02395,0.05309 0.05324,0.08737 0.132531,0.155201 0.72102,1.025507 0.72102,1.066309 0,0.02506 0.01815,0.05333 0.04036,0.06279 0.02219,0.0095 0.133512,0.156572 0.247359,0.326905 0.178942,0.267726 0.751896,1.108208 1.425079,2.090495 0.107012,0.156144 0.219535,0.313223 0.250059,0.349069 0.03053,0.03585 0.04132,0.08811 0.02401,0.116144 -0.04488,0.0726 -22.73694381,0.07014 -22.73694381,-0.0024 z M 10.529751,9.349692 c 0,-0.02455 -0.04646,-0.103712 -0.103243,-0.175899 -0.05677,-0.07218 -0.103228,-0.156613 -0.103228,-0.18762 0,-0.031 -0.01822,-0.05639 -0.04048,-0.05639 -0.02226,0 -0.08498,-0.07549 -0.139359,-0.167757 C 10.089061,8.669766 10.025519,8.571043 10.002233,8.542654 9.8646656,8.374907 9.1877196,7.367893 9.1877196,7.331001 c 0,-0.02438 -0.01744,-0.0521 -0.03872,-0.06156 C 9.1277196,7.259941 8.9476926,7.008344 8.7489656,6.710255 8.5502356,6.412165 8.3749984,6.156659 8.3595476,6.142466 8.3440996,6.128241 8.2385954,5.977289 8.1250913,5.806956 7.8760177,5.433139 6.5562537,3.500905 6.4661435,3.378132 6.4441806,3.348175 6.4029718,3.285316 6.3745794,3.238403 6.1248587,2.825772 5.5887162,2.071543 5.5429626,2.06851 5.5114266,2.06651 5.3023655,2.334374 5.0784099,2.663968 4.8544499,2.993563 4.589358,3.382624 4.4893118,3.528556 4.3892699,3.674487 4.0392455,4.188753 3.7114855,4.671376 3.3837226,5.153994 2.9322253,5.815986 2.7081516,6.142463 2.4840778,6.468941 2.2076944,6.875427 2.0939598,7.04576 1.9802338,7.216098 1.869017,7.363206 1.8468194,7.372671 c -0.02219,0.0095 -0.040355,0.03717 -0.040355,0.06156 0,0.02438 -0.1745165,0.295387 -0.3878136,0.602197 -0.2132971,0.306814 -0.4105062,0.592682 -0.43824421,0.635265 -0.027724,0.04259 -0.1435708,0.212016 -0.2574021,0.376518 -0.1138398,0.164499 -0.20697,0.30967 -0.20697,0.322606 0,0.01294 2.25308991,0.02351 5.00686171,0.02351 2.7831812,0 5.0068648,-0.01983 5.0068648,-0.04465 z M 3.0968812,9.113769 c 0,-0.04117 0.1745165,-0.325861 0.3878136,-0.632671 C 3.697992,8.174287 3.8954343,7.888416 3.9234597,7.845833 3.9514827,7.803243 4.1253729,7.547744 4.3098836,7.278046 4.4943971,7.008344 4.6682892,6.752841 4.6963103,6.710255 4.7243473,6.667665 4.921778,6.381804 5.1350752,6.07499 5.3483723,5.76818 5.5228859,5.495256 5.5228859,5.468489 c 0,-0.02679 0.017937,-0.04866 0.039886,-0.04866 0.02192,0 0.083655,-0.08129 0.1371683,-0.180662 0.053513,-0.09936 0.1168554,-0.180659 0.1407813,-0.180659 0.023912,0 0.043485,-0.02216 0.043485,-0.04926 0,-0.08141 0.6408231,-0.979193 0.7003675,-0.98121 0.060341,-0.002 0.5384398,0.638314 0.5384398,0.721163 0,0.02816 0.018222,0.05122 0.040483,0.05122 0.022262,0 0.08458,0.07549 0.138477,0.167752 0.080142,0.137211 0.8506636,1.267964 0.9944164,1.459324 0.021792,0.029 0.2022234,0.296133 0.4009504,0.593597 0.198724,0.297464 0.378741,0.548585 0.400031,0.558046 0.02128,0.0095 0.03872,0.03846 0.03872,0.06444 0,0.02597 0.17421,0.291952 0.38713,0.59106 0.212919,0.299107 0.387128,0.555622 0.387128,0.570034 0,0.01441 0.0468,0.07644 0.1040104,0.137851 0.05721,0.06141 0.09592,0.135931 0.08603,0.165599 -0.01223,0.03664 -1.1386644,0.05821 -3.5107438,0.06721 L 3.0968813,9.188564 Z M 17.408465,9.174979 C 17.329985,9.054325 17.247805,8.932378 17.225835,8.903988 17.070311,8.703052 16.775423,8.245331 16.775423,8.204864 c 0,-0.02711 -0.01956,-0.04933 -0.04349,-0.04933 -0.02391,0 -0.08727,-0.08129 -0.140781,-0.180659 -0.05351,-0.09936 -0.115234,-0.180662 -0.137168,-0.180662 -0.02192,0 -0.03987,-0.02243 -0.03987,-0.04986 0,-0.02743 -0.174209,-0.294577 -0.387129,-0.593684 -0.21292,-0.299107 -0.38713,-0.565083 -0.38713,-0.59106 0,-0.02597 -0.0174,-0.05496 -0.03872,-0.06444 -0.02128,-0.0095 -0.224532,-0.292678 -0.451648,-0.62937 C 14.92237,5.529112 14.654284,5.134239 14.553737,4.988308 14.453198,4.84238 14.195656,4.467478 13.981437,4.155193 13.614347,3.620059 13.384645,3.282825 12.188355,1.522722 11.918217,1.125272 11.633866,0.71213202 11.556466,0.60463052 l -0.140739,-0.1954509 -0.325238,0.4793464 C 10.720192,1.434286 10.383342,1.928566 10.025105,2.451833 9.6358466,3.020409 8.7164806,4.370428 8.3935758,4.847599 l -0.2939025,0.43432 0.2988327,0.43113 c 0.1643616,0.237124 0.3220636,0.471395 0.3504526,0.520601 0.02839,0.0492 0.06437,0.10108 0.07996,0.115276 0.01558,0.01422 0.135646,0.188403 0.2668,0.38713 0.131151,0.198727 0.311507,0.461875 0.400784,0.584772 L 9.6588216,7.544282 10.09136,6.907891 c 1.627084,-2.393918 2.333645,-3.429983 2.513666,-3.685897 0.09826,-0.1397 0.204697,-0.253988 0.236513,-0.253988 0.05077,0 0.733625,0.916506 0.733625,0.984635 0,0.01444 0.02388,0.05431 0.05304,0.08859 0.04521,0.05313 0.984617,1.40898 1.133979,1.636667 0.02792,0.04259 0.143923,0.212015 0.257759,0.376515 0.113825,0.164498 0.206965,0.321286 0.206965,0.348414 0,0.02711 0.01956,0.04933 0.04349,0.04933 0.02391,0 0.08727,0.08129 0.140781,0.180661 0.05351,0.09936 0.115234,0.180659 0.137169,0.180659 0.02192,0 0.03987,0.02243 0.03987,0.04986 0,0.02743 0.17421,0.294577 0.38713,0.593685 0.212923,0.299107 0.387129,0.565081 0.387129,0.591059 0,0.02597 0.01741,0.05496 0.03872,0.06444 0.05907,0.02627 0.683925,0.959075 0.683925,1.021022 0,0.03744 -0.97905,0.05434 -3.149082,0.05434 h -3.149084 l 0.06447,0.103228 0.06447,0.103229 h 3.317621 3.317623 z m 4.800394,0 C 22.130379,9.054325 22.04829,8.932378 22.026431,8.903988 21.970461,8.831298 21.251229,7.77723 21.188689,7.676226 21.143179,7.602726 20.671191,6.911723 20.128387,6.123905 19.725524,5.539199 19.137916,4.680792 18.604088,3.897126 18.294666,3.442898 17.929181,2.90866 17.791902,2.709933 17.65462,2.511206 17.503311,2.284884 17.45566,2.206994 17.40801,2.129104 17.345789,2.066098 17.317396,2.067009 c -0.05565,0.0017 -0.05077,-0.005 -0.858232,1.184907 -0.298612,0.440035 -0.732202,1.077706 -0.963541,1.417041 l -0.420615,0.616974 0.07594,0.08392 c 0.04178,0.04616 0.07595,0.109189 0.07595,0.140085 0,0.0309 0.01744,0.0639 0.03876,0.07336 0.02132,0.0095 0.182826,0.230226 0.358904,0.490585 0.531964,0.786586 0.60728,0.890473 0.647051,0.892514 0.02101,10e-4 0.125533,-0.131606 0.23228,-0.294839 0.106742,-0.163238 0.211979,-0.320027 0.233838,-0.348416 0.191489,-0.248665 0.811932,-1.17785 0.811932,-1.215957 0,-0.02679 0.01794,-0.04866 0.03989,-0.04866 0.02192,0 0.08366,-0.08129 0.137169,-0.180662 0.05351,-0.09936 0.116855,-0.180657 0.140781,-0.180657 0.02391,0 0.04349,-0.02179 0.04349,-0.04841 0,-0.02661 0.08711,-0.176712 0.193566,-0.333541 0.193849,-0.285565 0.335848,-0.360307 0.394438,-0.207617 0.0172,0.04481 0.194643,0.317728 0.394327,0.606501 0.513824,0.743055 1.383217,2.00746 1.443501,2.099358 0.02792,0.04259 0.143928,0.212018 0.257759,0.376518 0.11384,0.164498 0.20697,0.321286 0.20697,0.348414 0,0.02711 0.01956,0.04933 0.04348,0.04933 0.02391,0 0.08727,0.08129 0.140781,0.180662 0.05351,0.09936 0.115234,0.180658 0.137169,0.180658 0.02192,0 0.03989,0.02243 0.03989,0.04986 0,0.02743 0.17258,0.292289 0.383517,0.588607 0.210933,0.296315 0.369654,0.552613 0.352716,0.569552 -0.01693,0.01693 -0.956232,0.0308 -2.087318,0.0308 h -2.056522 l 0.06447,0.103229 0.06447,0.103228 h 2.233662 2.233663 z"
     id="path13" /></svg>
