<?xml version="1.0" encoding="UTF-8" standalone="no"?>
<svg
   width="22.814314"
   height="22.95783"
   viewBox="0 0 22.814314 22.95783"
   fill="none"
   version="1.1"
   id="svg3"
   xml:space="preserve"
   xmlns="http://www.w3.org/2000/svg"
   xmlns:svg="http://www.w3.org/2000/svg"><defs
     id="defs3" /><path
     style="fill:#f0f0f0;fill-opacity:1;stroke-width:0.0984281"
     d="m 9.8984666,22.821357 c -1.29364,-0.20124 -2.26117,-0.49571 -3.39871,-1.03442 -3.1149298,-1.47514 -5.3289198,-4.15856 -6.22561976,-7.54563 -0.28909,-1.09196 -0.36792,-3.68719 -0.14756,-4.8579799 0.22082,-1.17325 0.48249,-1.944661 1.04856996,-3.091231 1.58527,-3.2108599 4.4550398,-5.3646499 8.2146398,-6.1651999 0.8905004,-0.18962 3.2748304,-0.16166 4.2615504,0.05 4.675358,1.00278 8.160439,4.54757 9.033876,9.1886609 0.221177,1.1752399 0.147151,3.7762499 -0.138031,4.8500299 -0.570049,2.14635 -1.639192,3.98329 -3.18293,5.4687 -0.974736,0.93791 -1.830528,1.52669 -3.048885,2.09761 -1.20373,0.56407 -2.13476,0.84366 -3.4806,1.04522 -1.17422,0.17585 -1.77656,0.17468 -2.9363004,-0.006 z m 0.2968604,-0.57483 c 0.31485,-0.13034 0.64996,-0.26183 0.7447,-0.2922 0.11443,-0.0367 0.17225,-0.15618 0.17225,-0.35601 0,-0.23201 -0.0575,-0.32268 -0.25143,-0.39641 -0.24651,-0.0937 -0.53891,-0.60598 -0.68709,-1.2037 -0.0518,-0.20912 -0.0318,-0.27068 0.0879,-0.27068 0.19866,0 0.85059,0.6482 0.85059,0.84573 0,0.0826 0.0443,0.12279 0.0984,0.0893 0.0541,-0.0335 0.0984,-0.26012 0.0984,-0.50368 v -0.44285 l 0.44064,-0.4618 0.44065,-0.46181 0.002,0.47242 c 0.003,0.54585 -0.20401,1.01171 -0.48888,1.10212 -0.27939,0.0887 -0.39631,0.35787 -0.40949,0.94278 -0.0125,0.554 0.0222,0.59719 0.65458,0.81584 1.04856,0.36254 1.07922,0.36628 1.78619,0.21756 5.103228,-1.0735 8.794829,-5.64186 8.794829,-10.88361 0,-5.1202009 -3.373231,-9.4840108 -8.382959,-10.8446708 l -0.82007,-0.22273 -1.91934,-0.002 -1.9193504,-0.002 -0.82007,0.22517 c -1.93917,0.53244 -3.71589,1.55123 -5.0933198,2.9206 -0.95092,0.94535 -1.54289,1.7627799 -2.1406,2.9558799 -0.81194996,1.620741 -1.14705996,3.081221 -1.14828996,5.0043709 -0.002,3.07035 1.14717996,5.75415 3.39480996,7.92853 1.5618898,1.51098 3.3107898,2.46896 5.3153298,2.91152 0.32481,0.0717 0.59872,0.13483 0.60869,0.14026 0.01,0.005 0.27572,-0.0968 0.5905704,-0.2271 z m 4.90329,-1.3267 c -0.90357,-0.26266 -1.17467,-0.44486 -1.86401,-1.25276 -0.80363,-0.94185 -0.97431,-1.41901 -0.98178,-2.74474 -0.008,-1.47139 0.049,-1.6474 0.69635,-2.14103 0.81173,-0.61894 0.97321,-0.68896 1.41629,-0.6141 0.21376,0.0361 0.39004,0.11713 0.39174,0.18004 0.002,0.0629 0.1172,0.19756 0.25666,0.29921 l 0.25356,0.18483 -0.0676,-0.30786 c -0.0584,-0.26612 -0.0405,-0.30786 0.13258,-0.30786 0.229,0 0.67987,0.40876 0.62673,0.56819 -0.0592,0.17746 0.37181,1.02264 0.49826,0.97715 0.18256,-0.0657 0.46172,0.1162 0.4661,0.30365 0.003,0.11067 0.0588,0.0671 0.16331,-0.1265 0.0876,-0.16241 0.21502,-0.33958 0.283039,-0.39371 0.06802,-0.0541 0.138738,-0.18702 0.157155,-0.29529 0.01842,-0.10827 0.129994,-0.23933 0.247948,-0.29125 0.117955,-0.0519 0.260698,-0.19587 0.317206,-0.31989 0.05651,-0.12402 0.185414,-0.2255 0.286454,-0.2255 0.101042,0 0.257374,-0.0814 0.347406,-0.18088 l 0.163694,-0.18088 -0.197653,-0.17887 c -0.113711,-0.10291 -0.197653,-0.30348 -0.197653,-0.47228 v -0.29341 l 0.441977,0.0606 0.441976,0.0606 0.167433,-0.25553 0.167434,-0.25554 0.473298,0.0561 c 0.260315,0.0308 0.4733,0.0428 0.4733,0.0266 0,-0.0162 -0.06852,-0.16681 -0.152265,-0.33468 l -0.152264,-0.30522 -0.466615,0.0553 -0.466615,0.0553 -0.317945,-0.26754 c -0.228679,-0.19242 -0.383658,-0.25104 -0.551996,-0.20879 -0.156305,0.0392 -0.252387,0.011 -0.289254,-0.0851 -0.07583,-0.1976 0.04286,-1.1343 0.143729,-1.1343 0.0449,0 0.05613,-0.0664 0.02497,-0.14764 -0.04123,-0.10743 0.01165,-0.14764 0.194136,-0.14764 0.137935,0 0.274531,-0.0384 0.303546,-0.0854 0.02916,-0.0472 0.226497,-0.039 0.441185,0.0183 0.297253,0.0793 0.424396,0.0738 0.541657,-0.0235 l 0.153228,-0.12717 -0.215958,-0.1748799 -0.215959,-0.17487 0.119495,-0.26226 c 0.211153,-0.46343 0.15381,-0.74342 -0.175788,-0.85832 -0.183401,-0.0639 -0.295284,-0.17137 -0.295284,-0.28353 0,-0.0993 -0.08882,-0.20879 -0.197387,-0.24325 -0.108563,-0.0344 -0.338476,-0.18139 -0.510918,-0.326521 -0.230777,-0.19423 -0.457954,-0.27686 -0.860715,-0.31309 l -0.547177,-0.0492 -0.0315,-0.22147 c -0.0173,-0.1218 0.017,-0.22146 0.0763,-0.22146 0.05924,0 0.150938,-0.11371 0.203776,-0.25268 0.07065,-0.18582 0.144694,-0.23724 0.279848,-0.19435 0.101078,0.0321 0.295117,0.016 0.431197,-0.0357 l 0.247418,-0.0941 -0.246956,-0.49901 c -0.169829,-0.34316 -0.30654,-0.49901 -0.437744,-0.49901 -0.265272,0 -0.571559,-0.17829 -0.571559,-0.3327 0,-0.0709 -0.0862,-0.2069299 -0.19153,-0.3022699 -0.10535,-0.0953 -0.20501,-0.33131 -0.22147,-0.52439 -0.0367,-0.43015 -0.23281,-0.51952 -0.38881,-0.17715 -0.0759,0.16659 -0.19408,0.2538 -0.34392,0.2538 -0.12555,0 -0.40234,0.0696 -0.61508,0.15477 l -0.38681,0.15477 -0.3074,-0.15896 c -0.3017,-0.15602 -0.32874,-0.34743 -0.0491,-0.34743 0.0811,0 0.14241,-0.0949 0.14317,-0.22147 7.9e-4,-0.1218 0.0281,-0.32112 0.0607,-0.44292 0.0479,-0.17861 0.019,-0.22147 -0.14899,-0.22147 -0.11957,0 -0.20833,-0.0629 -0.20833,-0.14764 0,-0.15654 -0.08,-0.17957 -0.52171,-0.15013 -0.36666,0.0244 -0.561,-0.15363 -0.561,-0.51401 v -0.29553 l -0.30897,0.0618 c -0.25708,0.0514 -0.35533,0.0133 -0.58495,-0.22699 l -0.27598,-0.28878 -0.68553,-0.0524 c -0.50896,-0.0389 -0.71412,-0.018 -0.7965,0.0813 -0.061,0.0735 -0.10417,0.17159 -0.0959,0.21789 0.0685,0.38169 -0.2194,0.44356 -0.56281,0.12094 -0.1456104,-0.13679 -0.2842104,-0.18574 -0.4000604,-0.14128 -0.0975,0.0374 -0.18367,0.0541 -0.19153,0.037 -0.008,-0.017 -0.10471,0.0509 -0.21526,0.15094 -0.11054,0.10004 -0.25058,0.15123 -0.31121,0.11376 -0.22821,-0.14104 -0.57716,0.0408 -0.60927,0.31748 -0.038,0.32749 -0.37126,0.51533 -0.91785,0.51734 l -0.39459,10e-4 -0.0289,0.79989 -0.0289,0.79988 0.26902,-0.0514 c 0.20533,-0.0393 0.33473,0.0143 0.5465,0.22604 0.15261,0.15261 0.27747,0.3197799 0.27747,0.3714999 0,0.0517 -0.1728,0.13788 -0.384,0.19149 l -0.38399,0.0975 -0.0565,-0.28235 c -0.0316,-0.15774 -0.12056,-0.2823499 -0.20168,-0.2823499 -0.0799,0 -0.18591,-0.0727 -0.23564,-0.16158 -0.0687,-0.12275 -0.15858,-0.14347 -0.374,-0.0862 -0.59666,0.15864 -1.00548,0.10335 -1.29633,-0.1753 -0.36226,-0.34706 -0.4144398,-0.33606 -0.4144398,0.0874 0,0.24529 -0.0662,0.40695 -0.21656,0.5286799 l -0.21656,0.17536 0.17585,0.17585 c 0.16935,0.16934 0.17304,0.37997 0.0133,0.75995 -0.0519,0.12342 -0.0267,0.17225 0.0889,0.17225 0.0887,0 0.1870598,0.0672 0.2185898,0.14938 0.0315,0.0822 0.10765,0.13992 0.16916,0.12835 0.17209,-0.0324 0.55476,0.11835 0.55476,0.21851 0,0.0491 0.13288,0.15798 0.29528,0.24197 0.16241,0.084 0.29529,0.21715 0.29529,0.29593 0,0.11152 0.0926,0.13105 0.41832,0.0882 0.28976,-0.0381 0.47877,-0.01 0.61502,0.0923 0.32884,0.246251 0.16468,0.295861 -0.8857,0.267661 -0.55425,-0.0149 -1.02549,0.0763 -1.39868,0.27056 -0.2279198,0.11866 -0.5297998,0.21574 -0.6708598,0.21574 -0.323,0 -0.63723,0.16413 -0.63723,0.33284 0,0.26204 -0.31457,0.74987 -0.48355,0.74987 -0.20628,0 -0.37545,0.35029 -0.32449,0.6719099 0.0271,0.17117 0.0778,0.21115 0.2007,0.15833 0.42305,-0.18181 0.67926,-0.15641 0.94961,0.0942 l 0.27342,0.25339 0.35655,-0.27536 c 0.19609,-0.15145 0.5494598,-0.3310399 0.7852498,-0.3990999 l 0.42871,-0.12374 0.13651,0.1949 c 0.0878,0.1253199 0.20663,0.1765599 0.33291,0.1435399 0.12338,-0.0323 0.21845,0.006 0.25571,0.10319 0.0955,0.24877 -0.72179,0.94775 -1.1099,0.94927 l -0.31477,10e-4 0.10014,0.28726 c 0.0551,0.158 0.086,0.43483 0.0687,0.61518 l -0.0314,0.32791 -0.26584,-0.031 c -0.1844298,-0.0215 -0.3047098,0.0312 -0.3927798,0.17225 -0.0698,0.1118 -0.20961,0.20327 -0.31065,0.20327 -0.10903,0 -0.16402,0.0513 -0.13527,0.12624 0.0639,0.1666 -0.22813,0.51948 -0.50184,0.60635 -0.11957,0.0379 -0.19386,0.10709 -0.16508,0.15364 0.0288,0.0466 0.1698,0.0237 0.31341,-0.0508 0.2601,-0.13494 0.62141,-0.0526 0.62141,0.14166 0,0.0464 0.11287,0.11262 0.25081,0.14724 l 0.2507998,0.063 -0.2015898,0.25628 c -0.24423,0.31049 -0.2568,0.55377 -0.0379,0.73443 0.14037,0.11587 0.1562598,0.11408 0.11173,-0.0126 -0.0929,-0.26421 0.1099398,-0.50701 0.3957698,-0.47369 0.21651,0.0252 0.28921,-0.0267 0.40472,-0.28912 0.0909,-0.20663 0.21017,-0.31989 0.33674,-0.31989 0.10778,0 0.27378,-0.0704 0.3689,-0.15652 0.21683,-0.19623 0.58077,-0.0976 0.58077,0.15734 0,0.25843 0.13981,0.31623 0.4372,0.18073 0.21869,-0.0996 0.27488,-0.0893 0.39373,0.0726 l 0.13864,0.1888 0.0982,-0.25722 c 0.054,-0.14147 0.19021,-0.28128 0.30264,-0.31068 0.12481,-0.0326 0.2044,-0.13369 0.2044,-0.25952 0,-0.3491 0.40041,-0.24475 1.00336,0.26146 0.8364204,0.70222 1.0914904,1.05775 1.1741204,1.63654 0.11901,0.83355 0.0957,1.63668 -0.0743,2.56326 l -0.16112,0.87784 -0.3882604,0.42122 c -0.25047,0.27173 -0.74188,0.60286 -1.38467,0.93303 -0.82257,0.42253 -1.10883,0.51983 -1.64084,0.55772 l -0.64444,0.0459 -0.78432,-0.52489 c -2.0455098,-1.36892 -3.6787998,-3.67791 -4.2911798,-6.06645 -0.65196996,-2.54296 -0.40253996,-4.9927899 0.74923,-7.3587309 0.61293,-1.25907 1.24046,-2.1229299 2.19906,-3.0272299 1.2988798,-1.22529 2.9409898,-2.13598 4.6863398,-2.59896 l 0.98428,-0.2611 1.6240604,-0.002 1.62407,-0.002 0.98428,0.2634 c 3.03737,0.81282 5.559661,2.86829 6.887481,5.6127599 2.478226,5.1222409 0.600711,11.1369909 -4.349941,13.9353509 -0.39082,0.22092 -0.74516,0.39851 -0.78742,0.39465 -0.0423,-0.004 -0.3426,-0.0843 -0.66741,-0.17868 z m -5.06286,-7.18927 -0.5054304,-0.58343 0.194,-0.18073 c 0.1067,-0.0994 0.24599,-0.31301 0.3095304,-0.47468 l 0.11553,-0.29394 0.10277,0.22147 c 0.0565,0.1218 0.13971,0.22146 0.18485,0.22146 0.101,0 0.32485,0.52576 0.41203,0.96773 0.0638,0.32355 -0.0567,0.70555 -0.22262,0.70555 -0.0469,0 -0.31267,-0.26255 -0.59066,-0.58343 z m 1.79621,0.271 c -0.22075,-0.23557 -0.71702,-1.22127 -0.71873,-1.42753 -4.9e-4,-0.0637 0.11451,-0.20671 0.25563,-0.31772 0.30651,-0.2411 0.55679,-0.15154 0.81014,0.2899 0.0891,0.15517 0.35036,0.40124 0.58066,0.54681 0.66349,0.41939 0.68471,0.48401 0.25277,0.76985 -0.56705,0.37526 -0.91996,0.41672 -1.18047,0.13869 z m -4.7315604,-2.63908 c -0.17643,-0.2825 -0.15043,-0.47122 0.0748,-0.54269 0.10827,-0.0344 0.19685,-0.14808 0.19685,-0.2527 0,-0.13288 0.0682,-0.19023 0.22639,-0.19023 0.12451,0 0.28098,-0.0546 0.34772,-0.12133 0.0962,-0.0962 0.13326,-0.0757 0.17881,0.0984 0.0316,0.12088 0.11874,0.21977 0.19363,0.21977 0.0835,0 0.13616,0.10657 0.13616,0.2756 0,0.15158 0.0487,0.32427 0.10816,0.38375 0.15784,0.15784 -0.46534,0.28092 -0.64931,0.12824 -0.10838,-0.0899 -0.189,-0.0809 -0.36237,0.0405 -0.28311,0.1983 -0.3035,0.19652 -0.45079,-0.0393 z m 7.9489904,-0.264 c -0.0812,-0.0276 -0.28899,-0.11358 -0.46176,-0.19096 l -0.31411,-0.1407 0.0976,-0.27998 0.0976,-0.27999 0.41337,-10e-4 c 0.22736,-7.8e-4 0.53508,0.0607 0.68383,0.13664 0.23338,0.11913 0.30085,0.11839 0.49214,-0.005 l 0.22168,-0.14345 0.23237,0.19025 0.23237,0.19025 h -0.21479 c -0.11814,0 -0.28123,0.0664 -0.36244,0.14765 -0.0812,0.0812 -0.24978,0.14764 -0.37462,0.14764 -0.12485,0 -0.28213,0.0664 -0.34952,0.14764 -0.12938,0.15589 -0.15845,0.16193 -0.39372,0.0818 z m -3.41069,-0.18367 c -0.0319,-0.0831 -0.004,-0.34477 0.0626,-0.58154 l 0.12053,-0.4304899 0.34169,-0.0641 c 0.21248,-0.0399 0.39581,-0.0192 0.48479,0.0547 0.10429,0.0865 0.20483,0.0906 0.37071,0.0151 0.13125,-0.0598 0.28519,-0.0681 0.36361,-0.0197 0.19575,0.1209799 -0.26044,0.5865599 -0.57472,0.5865599 -0.13824,0 -0.35469,0.12423 -0.51447,0.29529 -0.30136,0.3226 -0.56406,0.38048 -0.65471,0.14423 z m -1.44401,-0.3072 c -0.11238,-0.11238 -0.068,-0.6637099 0.0678,-0.8424999 0.0976,-0.1285 0.15564,-0.14143 0.24294,-0.0541 0.0631,0.0631 0.11469,0.18555 0.11469,0.27217 0,0.0866 0.0532,0.2106399 0.11811,0.2755999 0.074,0.074 0.0832,0.15073 0.0246,0.20548 -0.13973,0.13055 -0.49207,0.21947 -0.56816,0.14338 z m -2.2686104,-2.5223299 -0.17255,-0.12617 0.40864,-0.267551 c 0.44451,-0.29103 0.63135,-0.32096 1.03811,-0.16631 0.21119,0.0803 0.30368,0.0673 0.44728,-0.0626 l 0.18104,-0.16383 0.059,0.15388 c 0.0325,0.0846 0.0445,0.25676 0.0267,0.382501 -0.0373,0.26292 -0.32042,0.28895 -0.83202,0.0765 l -0.30749,-0.12771 -0.27175,0.21375 c -0.31754,0.24978 -0.34869,0.25451 -0.57697,0.0876 z m 6.8812904,-0.488501 c -0.11841,-0.16905 -0.1255,-0.22979 -0.0302,-0.2586 0.0685,-0.0207 0.21316,-0.11276 0.32143,-0.20458 0.1722,-0.14603 0.73821,-0.26827 0.73821,-0.15943 0,0.0605 -0.76429,0.843561 -0.82334,0.843561 -0.0282,0 -0.12099,-0.0994 -0.20611,-0.220951 z m -3.15485,-2.6833899 c -0.0344,-0.10788 -0.10279,-0.27186 -0.15206,-0.36439 -0.12183,-0.22883 -0.003,-0.76682 0.16958,-0.76682 0.0767,0 0.22785,0.0824 0.33587,0.18299 l 0.19642,0.18299 -0.24367,0.48068 c -0.20353,0.4015099 -0.25396,0.4483799 -0.30614,0.28455 z"
     id="path13" /></svg>
