<?xml version="1.0" encoding="UTF-8" standalone="no"?>
<!-- Created with Inkscape (http://www.inkscape.org/) -->

<svg
   width="6.1127548mm"
   height="4.7746229mm"
   viewBox="0 0 6.1127548 4.774623"
   version="1.1"
   id="svg1"
   xml:space="preserve"
   xmlns="http://www.w3.org/2000/svg"
   xmlns:svg="http://www.w3.org/2000/svg"><defs
     id="defs1" /><path
     style="font-size:2.46944px;font-family:Offside;-inkscape-font-specification:Offside;fill:#ffd000;fill-opacity:1;stroke-width:1.36166;paint-order:markers stroke fill"
     d="m 2.406212,1.5576839 v 1.6965067 c 0,0.1286769 0.05587,0.2268787 0.167616,0.2946031 0.111751,0.067725 0.272593,0.1015877 0.482539,0.1015877 0.43344,0 0.650158,-0.1320625 0.650158,-0.3961904 V 3.040858 c 0,-0.077884 0.06773,-0.1168251 0.203179,-0.1168251 0.135447,0 0.20318,0.038941 0.20318,0.1168251 v 0.1625394 c 0,0.2607406 -0.09143,0.4605288 -0.274284,0.5993649 -0.179464,0.1354502 -0.440211,0.2031753 -0.782222,0.2031753 -0.342012,0 -0.604443,-0.069418 -0.787301,-0.208254 C 2.089613,3.6588478 1.99987,3.460752 1.99987,3.2033976 V 1.6084781 c 0,-0.2607406 0.08974,-0.4588358 0.269205,-0.5942854 0.182857,-0.1388358 0.445291,-0.2082538 0.787303,-0.2082538 0.342009,0 0.60275,0.069418 0.78222,0.2082538 0.182857,0.1354502 0.274286,0.3335454 0.274286,0.5942854 v 0.1625394 c 0,0.077884 -0.06773,0.1168251 -0.20318,0.1168251 -0.135445,0 -0.203179,-0.038941 -0.203179,-0.1168251 V 1.5576844 c 0,-0.2641268 -0.21672,-0.3961901 -0.650158,-0.3961901 -0.209946,0 -0.370792,0.033863 -0.482539,0.1015876 -0.111751,0.067725 -0.167616,0.1659251 -0.167616,0.294602 z"
     id="text2"
     aria-label="{coinza}" /><path
     style="font-size:2.46944px;font-family:Offside;-inkscape-font-specification:Offside;fill:#eaeaea;fill-opacity:1;stroke-width:1.36166;paint-order:markers stroke fill"
     d="m 0.82792298,1.7066774 c 0,0.3420103 -0.115124,0.5502641 -0.345397,0.6247615 0.230265,0.091429 0.345397,0.2996825 0.345397,0.6247614 v 1.0158725 c 0,0.1625394 0.03725,0.2776718 0.111751,0.3453967 0.0745,0.067725 0.19978502,0.1015877 0.37587102,0.1015877 0.06773,0 0.10159,0.059259 0.10159,0.1777768 0,0.1185179 -0.03386,0.1777769 -0.10159,0.1777769 -0.311534,0 -0.53841102,-0.064339 -0.68063502,-0.1930163 -0.142213,-0.1252913 -0.213331,-0.3284652 -0.213331,-0.6095235 V 2.9561987 c 0,-0.1489948 -0.01687,-0.2539679 -0.05078,-0.3149202 -0.03049,-0.064337 -0.09482,-0.108359 -0.193019,-0.1320625 l -0.07619,-0.020322 C 0.03385998,2.475339 -1.7483218e-8,2.422859 -1.7483218e-8,2.331433 -1.7483218e-8,2.246778 0.03385998,2.19429 0.10158998,2.173972 l 0.07619,-0.020322 c 0.09482,-0.023704 0.159162,-0.066032 0.193018,-0.1269839 0.03386,-0.064337 0.05078,-0.1710056 0.05078,-0.3199999 V 0.8025397 c 0,-0.2810579 0.07111,-0.4842324 0.213332,-0.6095234 C 0.77712398,0.0643394 1.004011,0 1.315544,0 c 0.06773,0 0.10159,0.059259 0.10159,0.1777768 0,0.1185179 -0.03386,0.1777768 -0.10159,0.1777768 -0.176089,0 -0.301374,0.033863 -0.37587102,0.1015877 -0.0745,0.067725 -0.11175,0.1828574 -0.11175,0.3453966 z M 5.284831,1.706676 V 0.8025496 C 5.284831,0.6400102 5.247581,0.5248779 5.17308,0.457153 5.10198,0.389428 4.976668,0.3555654 4.797207,0.3555654 c -0.06773,0 -0.101589,-0.059259 -0.101589,-0.1777769 0,-0.1185179 0.03386,-0.177776801781 0.101589,-0.177776801781 0.311534,0 0.538413,0.06433900178 0.680634,0.193016301781 0.142213,0.1252912 0.213335,0.3284651 0.213335,0.6095234 v 0.9041264 c 0,0.1489948 0.01687,0.2556614 0.05078,0.3199998 0.03387,0.060952 0.09822,0.1032804 0.193018,0.1269841 l 0.07619,0.020322 c 0.06773,0.020322 0.10159,0.072805 0.10159,0.157461 0,0.091429 -0.03386,0.1439163 -0.10159,0.1574609 l -0.07619,0.020322 c -0.0948,0.023704 -0.159142,0.067725 -0.193018,0.1320625 -0.03386,0.060952 -0.05078,0.1659251 -0.05078,0.3149202 V 3.972083 c 0,0.2810581 -0.07111,0.4842325 -0.213335,0.6095234 -0.142213,0.1286769 -0.3691,0.1930163 -0.680634,0.1930163 -0.06773,0 -0.101589,-0.059259 -0.101589,-0.1777768 0,-0.1185179 0.03386,-0.1777769 0.101589,-0.1777769 0.179463,0 0.304763,-0.033863 0.375873,-0.1015877 C 5.24758,4.2497563 5.284831,4.134624 5.284831,3.9720846 V 2.9562121 c 0,-0.1693128 0.02877,-0.3047617 0.08635,-0.4063489 C 5.428751,2.4482755 5.520182,2.375472 5.645466,2.3314506 5.520182,2.2874286 5.428746,2.2146256 5.371181,2.1130381 5.313611,2.0114504 5.284831,1.8760015 5.284831,1.7066891 Z"
     id="path2"
     aria-label="{coinza}" /></svg>
