<?xml version="1.0" encoding="UTF-8" standalone="no"?>
<svg
   width="19.201237"
   height="19.674269"
   viewBox="0 0 19.201237 19.674269"
   fill="none"
   version="1.1"
   id="svg3"
   xml:space="preserve"
   xmlns="http://www.w3.org/2000/svg"
   xmlns:svg="http://www.w3.org/2000/svg"><defs
     id="defs3" /><g
     id="g12"
     transform="matrix(0.06590541,0,0,0.06590541,51.538447,-32.270816)"
     style="fill:#ebebeb;fill-opacity:1"><path
       style="fill:#ebebeb;fill-opacity:1"
       d="m -738.63564,783.45534 c -20.17629,-13.60482 -36.48659,-36.97917 -39.94695,-57.24813 -0.79813,-4.675 -1.98973,-15.025 -2.648,-23 -1.29264,-15.66025 -1.30524,-15.11203 2.59712,-113 1.34845,-33.825 2.45208,-66.08893 2.45251,-71.69763 l 7.8e-4,-10.19763 8.52408,-4.64648 c 10.29746,-5.61315 32.40119,-14.86684 33.31776,-13.94843 1.03946,1.04154 0.36486,52.6451 -1.36017,104.04708 -0.86857,25.8813 -1.65813,60.5313 -1.75459,77 l -0.17536,29.94309 2.24618,10.26522 c 4.46401,20.40094 9.13242,29.67754 21.6041,42.92952 l 7.90199,8.39641 -3.38338,3.70442 c -6.63961,7.26964 -21.39022,22.20389 -21.90086,22.17352 -0.28586,-0.017 -3.64971,-2.14144 -7.47521,-4.72096 z m 124.56844,-36.73511 c -30.47824,-6.88733 -53.58997,-25.17155 -66.54636,-52.64632 -7.57966,-16.07312 -10.41978,-32.43815 -8.53846,-49.19943 1.41763,-12.63008 3.40147,-19.50554 8.99302,-31.16727 12.15465,-25.34979 32.86286,-42.68415 60.58379,-50.71328 6.80469,-1.97092 10.17376,-2.28672 24.39503,-2.28672 14.21792,0 17.60647,0.31748 24.5,2.29548 10.37927,2.97818 24.55454,9.94081 31.5,15.47222 l 5.5,4.38023 14,-6.77763 c 7.7,-3.7277 15.20459,-7.064 16.67686,-7.41402 l 2.67685,-0.63638 0.415,62.84005 c 0.45347,68.66669 0.60037,70.53532 6.48162,82.44905 l 2.76891,5.609 -11.6632,12.3504 -11.66319,12.3504 -3.68164,-1.9594 c -2.0249,-1.07767 -6.23079,-4.09282 -9.34642,-6.70034 -8.97149,-7.50836 -9.12188,-7.54192 -14.70439,-3.28069 -6.43541,4.91225 -16.11587,9.68574 -26.4604,13.04777 l -8.5,2.76254 -15.5,0.33382 c -10.96883,0.23624 -17.36714,-0.0881 -21.88702,-1.10948 z m 35.71606,-44.14422 c 22.79253,-5.92184 37.17096,-24.63181 37.17096,-48.3688 0,-29.71931 -21.88225,-50.23721 -53.49517,-50.15976 -20.5442,0.0503 -37.11657,10.34444 -46.02556,28.58929 -16.98862,34.79126 10.92934,74.90241 50.02073,71.86732 3.85,-0.29891 9.39807,-1.16654 12.32904,-1.92805 z"
       id="path12" /></g></svg>
