<?xml version="1.0" encoding="UTF-8" standalone="no"?>
<!-- Created with Inkscape (http://www.inkscape.org/) -->

<svg
   width="24.867271mm"
   height="6.1688919mm"
   viewBox="0 0 24.867271 6.168892"
   version="1.1"
   id="svg1"
   xml:space="preserve"
   sodipodi:docname="logo.svg"
   inkscape:export-filename="logo.svg"
   inkscape:export-xdpi="96"
   inkscape:export-ydpi="96"
   xmlns:inkscape="http://www.inkscape.org/namespaces/inkscape"
   xmlns:sodipodi="http://sodipodi.sourceforge.net/DTD/sodipodi-0.dtd"
   xmlns="http://www.w3.org/2000/svg"
   xmlns:svg="http://www.w3.org/2000/svg"><sodipodi:namedview
     id="namedview1"
     pagecolor="#ffffff"
     bordercolor="#000000"
     borderopacity="0.25"
     inkscape:showpageshadow="2"
     inkscape:pageopacity="0.0"
     inkscape:pagecheckerboard="0"
     inkscape:deskcolor="#d1d1d1"
     inkscape:document-units="mm"
     showguides="true"><inkscape:page
       x="0"
       y="1.3596107e-18"
       width="24.867271"
       height="6.1688919"
       id="page2"
       margin="0"
       bleed="0" /></sodipodi:namedview><defs
     id="defs1" /><g
     id="g3"
     transform="matrix(2.5327018,0,0,2.5327018,-26.379827,-5.0301568)"
     style="fill:#eaeaea;fill-opacity:1"><path
       style="font-size:2.46944px;font-family:Offside;-inkscape-font-specification:Offside;fill:#eaeaea;fill-opacity:1;stroke-width:0.662;paint-order:markers stroke fill"
       d="m 11.598544,2.857796 v 0.8247929 c 0,0.062559 0.02716,0.1103019 0.08149,0.1432276 0.05433,0.032926 0.132527,0.049389 0.234597,0.049389 0.210726,0 0.316088,-0.064205 0.316088,-0.1926164 V 3.5788727 c 0,-0.037865 0.03293,-0.056797 0.09878,-0.056797 0.06585,0 0.09878,0.018932 0.09878,0.056797 v 0.079022 c 0,0.1267646 -0.04445,0.2238959 -0.133349,0.291394 -0.08725,0.065852 -0.214018,0.098778 -0.380294,0.098778 -0.166276,0 -0.293863,-0.033749 -0.382763,-0.1012471 -0.08725,-0.067498 -0.130881,-0.1638065 -0.130881,-0.2889248 V 2.8824907 c 0,-0.1267646 0.04363,-0.2230728 0.13088,-0.2889245 0.0889,-0.067498 0.216488,-0.101247 0.382764,-0.101247 0.166275,0 0.29304,0.033749 0.380293,0.101247 0.0889,0.065852 0.13335,0.1621602 0.13335,0.2889245 v 0.079022 c 0,0.037865 -0.03293,0.056797 -0.09878,0.056797 -0.06585,0 -0.09878,-0.018932 -0.09878,-0.056797 V 2.8577963 c 0,-0.1284109 -0.105363,-0.1926163 -0.316088,-0.1926163 -0.10207,0 -0.180269,0.016463 -0.234597,0.049389 -0.05433,0.032926 -0.08149,0.080668 -0.08149,0.143227 z m 2.343501,0.024694 v 0.7754041 c 0,0.1251183 -0.0461,0.2214265 -0.138289,0.2889245 -0.09055,0.067498 -0.22225,0.1012471 -0.395111,0.1012471 -0.172861,0 -0.305387,-0.033749 -0.39758,-0.1012471 -0.09219,-0.067497 -0.138288,-0.1638055 -0.138288,-0.2889238 V 2.8824907 c 0,-0.1267646 0.04527,-0.2230728 0.135819,-0.2889245 0.09219,-0.067498 0.224719,-0.101247 0.39758,-0.101247 0.172861,0 0.305387,0.033749 0.39758,0.101247 0.09219,0.065852 0.138289,0.1621599 0.138289,0.2889238 z M 13.744489,3.6825885 V 2.8577963 c 0,-0.062559 -0.02881,-0.1103018 -0.08643,-0.1432275 -0.05762,-0.032926 -0.141581,-0.049389 -0.251883,-0.049389 -0.223896,0 -0.335844,0.064205 -0.335844,0.1926163 V 3.682589 c 0,0.062559 0.02881,0.1103019 0.08643,0.1432276 0.05762,0.032926 0.141581,0.049389 0.251882,0.049389 0.223896,0 0.335844,-0.064206 0.335845,-0.1926171 z M 14.658181,2.57381 v 1.1482896 c 0,0.04445 0.0058,0.080668 0.01729,0.1086553 0.01317,0.027987 0.02551,0.051035 0.03704,0.069144 0.01317,0.016463 0.01976,0.029633 0.01976,0.039511 0,0.011524 -0.0074,0.025517 -0.02223,0.04198 -0.01482,0.014817 -0.03211,0.027164 -0.05186,0.037042 -0.01811,0.011524 -0.03539,0.017286 -0.05186,0.017286 -0.02305,0 -0.04609,-0.013993 -0.06914,-0.04198 -0.02305,-0.029633 -0.04198,-0.066675 -0.0568,-0.1111248 -0.01317,-0.04445 -0.01976,-0.089723 -0.01976,-0.1358192 v -1.172984 c 0,-0.037865 0.03293,-0.056797 0.09878,-0.056797 0.06585,0 0.09878,0.018932 0.09878,0.056797 z m 0.0074,-0.3111494 c 0,0.041157 -0.03539,0.061736 -0.106186,0.061736 -0.07244,0 -0.108655,-0.020579 -0.108655,-0.061736 V 2.0478193 c 0,-0.041157 0.03539,-0.061736 0.106186,-0.061736 0.07244,0 0.108655,0.020579 0.108655,0.061736 z M 16.270715,2.88249 v 1.0840841 c 0,0.037865 -0.03293,0.056797 -0.09878,0.056797 -0.06585,0 -0.09878,-0.018932 -0.09878,-0.056797 V 2.8577963 c 0,-0.062559 -0.02881,-0.1103018 -0.08643,-0.1432275 -0.05762,-0.032926 -0.141581,-0.049389 -0.251882,-0.049389 -0.223896,0 -0.335844,0.064205 -0.335844,0.1926163 v 1.1087785 c 0,0.037865 -0.03293,0.056797 -0.09878,0.056797 -0.06585,0 -0.09878,-0.018932 -0.09878,-0.056797 V 2.8824905 c 0,-0.1267646 0.04527,-0.2230728 0.135819,-0.2889245 0.09219,-0.067498 0.224719,-0.101247 0.39758,-0.101247 0.172861,0 0.305387,0.033749 0.397579,0.101247 0.09219,0.065852 0.138289,0.1621602 0.138289,0.2889245 z m 0.493888,1.1285341 c -0.03293,0 -0.04939,-0.02881 -0.04939,-0.08643 v -0.08643 c 0,-0.031279 0.0016,-0.058443 0.0049,-0.081492 0.0049,-0.023048 0.01481,-0.046096 0.02963,-0.069144 0.01647,-0.024695 0.04034,-0.055151 0.07161,-0.091369 0.03293,-0.036219 0.07655,-0.082315 0.13088,-0.1382886 L 17.45106,2.9466964 c 0.03457,-0.034572 0.05927,-0.060913 0.07408,-0.079022 0.01482,-0.018109 0.02387,-0.034572 0.02716,-0.049389 0.0049,-0.016463 0.0074,-0.037041 0.0074,-0.061736 v -0.054328 h -0.723546 c -0.03293,0 -0.04939,-0.02881 -0.04939,-0.08643 0,-0.05762 0.01646,-0.08643 0.04939,-0.08643 h 0.871712 c 0.03293,0 0.04939,0.02881 0.04939,0.08643 v 0.1358192 c 0,0.041157 -0.0049,0.076553 -0.01482,0.1061859 -0.0099,0.029633 -0.03211,0.065029 -0.06668,0.1061859 -0.03293,0.039511 -0.08479,0.095485 -0.155575,0.1679219 l -0.498826,0.5111741 c -0.03128,0.032926 -0.05515,0.059267 -0.07161,0.079022 -0.01481,0.019755 -0.02469,0.037865 -0.02963,0.054328 -0.0049,0.016463 -0.0074,0.037041 -0.0074,0.061736 h 0.797629 c 0.03293,0 0.04939,0.02881 0.04939,0.08643 0,0.05762 -0.01646,0.08643 -0.04939,0.08643 z m 2.089146,0 h -0.288925 c -0.14652,0 -0.251883,-0.029633 -0.316088,-0.0889 -0.06256,-0.060913 -0.09384,-0.1613366 -0.09384,-0.3012717 v -0.019756 c 0,-0.090546 0.01152,-0.1621599 0.03457,-0.2148413 0.02305,-0.054327 0.06338,-0.094661 0.121002,-0.1210025 0.05762,-0.026341 0.137465,-0.04445 0.239536,-0.054328 l 0.427213,-0.041981 V 2.8948358 c 0,-0.1284109 -0.111948,-0.1926163 -0.335844,-0.1926163 H 18.30306 c -0.03293,0 -0.04939,-0.02881 -0.04939,-0.08643 0,-0.05762 0.01646,-0.08643 0.04939,-0.08643 h 0.338313 c 0.172861,0 0.304564,0.033749 0.39511,0.101247 0.09219,0.065852 0.138289,0.1621602 0.138289,0.2889245 v 0.7284848 c 0,0.069144 0.0058,0.123472 0.01729,0.162983 0.01317,0.037865 0.02552,0.066675 0.03704,0.08643 0.01317,0.018109 0.01975,0.032103 0.01975,0.041981 0,0.011524 -0.0074,0.025517 -0.02222,0.04198 -0.01481,0.014817 -0.0321,0.027164 -0.05186,0.037042 -0.01811,0.011524 -0.03539,0.017286 -0.05186,0.017286 -0.02634,0 -0.05103,-0.016463 -0.07408,-0.049389 -0.0214,-0.034572 -0.03869,-0.079022 -0.05186,-0.1333498 -0.01317,-0.055974 -0.01975,-0.1160637 -0.01975,-0.1802691 v -0.330905 l -0.412397,0.041981 c -0.08561,0.00823 -0.142404,0.027164 -0.170391,0.056797 -0.02799,0.029633 -0.04198,0.083138 -0.04198,0.1605136 v 0.019756 c 0,0.083961 0.01482,0.1415813 0.04445,0.1728608 0.03128,0.029633 0.08725,0.04445 0.167921,0.04445 h 0.288925 c 0.03293,0 0.04939,0.02881 0.04939,0.08643 0,0.05762 -0.01646,0.08643 -0.04939,0.08643 z"
       id="text2"
       aria-label="{coinza}"
       sodipodi:nodetypes="csssssssscscsscscssssssscsscsssscscscssssssscssccsccsccssssssssssscssssssssssscscccssscccccccscsssssssccccccsssscscsscsccsssssscssccsccsccsccssscssssc" /><path
       style="font-size:2.46944px;font-family:Offside;-inkscape-font-specification:Offside;fill:#eaeaea;fill-opacity:1;stroke-width:0.662;paint-order:markers stroke fill"
       d="m 10.818199,2.9302324 c 0,0.1662756 -0.05597,0.2675226 -0.167922,0.3037411 0.111948,0.04445 0.167922,0.145697 0.167922,0.3037411 v 0.493888 c 0,0.079022 0.01811,0.1349961 0.05433,0.167922 0.03622,0.032926 0.09713,0.049389 0.182738,0.049389 0.03293,0 0.04939,0.02881 0.04939,0.08643 0,0.05762 -0.01646,0.08643 -0.04939,0.08643 -0.151459,0 -0.26176,-0.03128 -0.330905,-0.093839 -0.06914,-0.060913 -0.103716,-0.1596903 -0.103716,-0.2963328 v -0.493888 c 0,-0.072437 -0.0082,-0.1234719 -0.02469,-0.1531052 -0.01482,-0.031279 -0.0461,-0.052681 -0.09384,-0.064205 l -0.03704,-0.00988 c -0.03293,-0.00659 -0.04939,-0.032104 -0.04939,-0.076553 0,-0.041157 0.01646,-0.066675 0.04939,-0.076553 l 0.03704,-0.00988 c 0.0461,-0.011524 0.07738,-0.032103 0.09384,-0.061736 0.01646,-0.031279 0.02469,-0.083138 0.02469,-0.1555747 V 2.4906666 c 0,-0.1366423 0.03457,-0.2354199 0.103716,-0.2963328 0.06914,-0.062559 0.179446,-0.093839 0.330905,-0.093839 0.03293,0 0.04939,0.02881 0.04939,0.08643 0,0.05762 -0.01646,0.08643 -0.04939,0.08643 -0.08561,0 -0.14652,0.016463 -0.182738,0.049389 -0.03622,0.032926 -0.05433,0.0889 -0.05433,0.1679219 z m 9.01345,-7e-7 V 2.4906714 c 0,-0.079022 -0.01811,-0.134996 -0.05433,-0.1679219 -0.03457,-0.032926 -0.09549,-0.049389 -0.182739,-0.049389 -0.03293,0 -0.04939,-0.02881 -0.04939,-0.08643 0,-0.05762 0.01646,-0.08643 0.04939,-0.08643 0.151459,0 0.261761,0.03128 0.330905,0.093839 0.06914,0.060913 0.103717,0.1596903 0.103717,0.2963328 v 0.4395603 c 0,0.072437 0.0082,0.1242952 0.02469,0.1555747 0.01647,0.029633 0.04775,0.050212 0.09384,0.061736 l 0.03704,0.00988 c 0.03293,0.00988 0.04939,0.035396 0.04939,0.076553 0,0.04445 -0.01646,0.069968 -0.04939,0.076553 l -0.03704,0.00988 c -0.04609,0.011524 -0.07737,0.032926 -0.09384,0.064205 -0.01646,0.029633 -0.02469,0.080668 -0.02469,0.1531052 v 0.493888 c 0,0.1366424 -0.03457,0.23542 -0.103717,0.2963328 -0.06914,0.062559 -0.179446,0.093839 -0.330905,0.093839 -0.03293,0 -0.04939,-0.02881 -0.04939,-0.08643 0,-0.05762 0.01646,-0.08643 0.04939,-0.08643 0.08725,0 0.148167,-0.016463 0.182739,-0.049389 0.03622,-0.032926 0.05433,-0.0889 0.05433,-0.167922 v -0.493888 c 0,-0.082315 0.01399,-0.1481664 0.04198,-0.1975552 0.02799,-0.049389 0.07244,-0.084784 0.13335,-0.1061859 -0.06091,-0.021402 -0.105363,-0.056797 -0.13335,-0.1061859 -0.02799,-0.049389 -0.04198,-0.1152404 -0.04198,-0.1975552 z"
       id="path2"
       aria-label="{coinza}"
       sodipodi:nodetypes="scsssssscsscccscccsscsssssscscssscsscccscccsscssscssscssc" /></g></svg>
