<svg xmlns="http://www.w3.org/2000/svg" width="118" height="34" viewBox="0 0 118 34" fill="none">
    <path fill-rule="evenodd" clip-rule="evenodd"
          d="M35.3719 17.0255C35.3719 20.4579 37.5138 22.7877 40.726 22.7877C43.9362 22.7877 46.2062 20.373 46.2062 16.983C46.2062 13.678 43.8953 11.2201 40.726 11.2201C37.5567 11.2201 35.3719 13.5931 35.3719 17.0255ZM35.4584 8.55062C36.9143 6.98237 39.1413 6.05029 41.7969 6.05029C47.7512 6.05029 52.0806 10.6721 52.0806 17.0268C52.0806 23.3815 47.7545 28 41.8002 28C39.0562 28 36.7862 27.0287 35.3296 25.3305C35.2015 26.8981 34.0448 28 32.5453 28C30.9177 28 29.6758 26.7289 29.6758 25.0764V2.92423C29.6758 1.27172 30.9177 0 32.5882 0C34.2164 0 35.4584 1.22926 35.4584 2.92423V8.55062ZM111.231 16.0508L117.313 23.5929C117.785 24.1866 117.999 24.7366 117.999 25.3728C117.999 26.8555 116.839 27.9998 115.386 27.9998C114.487 27.9998 113.801 27.6589 113.245 26.9404L106.005 18.1265C105.362 17.2794 105.105 16.6863 105.105 16.0508C105.105 15.3303 105.407 14.7373 106.133 13.9319L112.901 6.943C113.416 6.37997 114.147 6.05731 114.914 6.05273C116.414 6.05273 117.57 7.15463 117.57 8.59552C117.57 9.31596 117.27 9.99395 116.628 10.6295L111.231 16.0508ZM101.295 0.019043C99.6248 0.019043 98.3828 1.29076 98.3828 2.94328V25.0765C98.3828 26.729 99.6248 28.0001 101.295 28.0001C102.923 28.0001 104.165 26.7715 104.165 25.0765V2.94328C104.165 1.2483 102.966 0.019043 101.295 0.019043ZM81.4899 8.21163C82.9894 6.85565 85.0883 6.05029 87.4442 6.05029H87.4462C92.2866 6.05029 95.4129 9.35598 95.4129 14.4827V25.0764C95.4129 26.7714 94.2139 28 92.5434 28C90.9158 28 89.6732 26.7289 89.6732 25.0764V15.2456C89.6732 12.8302 88.0892 11.1777 85.7321 11.1777C83.3749 11.1777 81.7045 12.8726 81.7045 15.2456V25.0764C81.7045 26.7714 80.4619 28 78.8343 28C77.1638 28 75.9219 26.7289 75.9219 25.0764V8.93207C75.9219 7.27956 77.1638 6.05029 78.7914 6.05029C80.1192 6.05029 81.1901 6.94056 81.4899 8.21163ZM62.7143 23.8047C60.8299 23.8047 59.6731 22.9151 59.6731 21.5186C59.6731 20.1221 60.7012 19.3997 62.6285 19.3997H67.1691V19.6545C67.1691 22.0274 65.2418 23.8067 62.7143 23.8067V23.8047ZM63.7853 6.05029C60.7012 6.05029 57.9175 6.98236 56.1183 8.63553C55.3471 9.35402 54.9186 10.1182 54.9186 10.9216C54.9186 12.1927 55.9895 13.2521 57.4031 13.2521C57.9597 13.2521 58.4312 13.0823 59.1198 12.5741C60.3618 11.5147 61.6896 11.0065 63.189 11.0065C65.7588 11.0065 67.1724 12.3625 67.1724 14.693V15.6251H61.8612C56.8927 15.6251 53.8516 17.9556 53.8516 21.727C53.8516 25.4553 56.8069 27.9974 61.1759 27.9974C63.7027 27.9974 65.8446 27.1927 67.387 25.7518C67.6438 27.0229 68.7571 27.9549 70.1707 27.9549C71.7553 27.9549 72.955 26.7688 72.955 25.1163V15.0333C72.9517 9.31613 69.6108 6.05029 63.7853 6.05029ZM22.0649 6.05209C23.6125 6.05405 24.8651 7.29703 24.8631 8.82805L24.8664 25.2258C24.8618 26.7562 23.6086 27.9953 22.0616 27.9998C20.5146 27.9953 19.2614 26.7562 19.2568 25.2258V15.5269L18.1053 16.6661C17.0079 17.7451 15.2357 17.7451 14.1384 16.6661C13.0476 15.5805 13.0476 13.8267 14.1384 12.7412L20.0808 6.86267C20.607 6.34275 21.3207 6.05078 22.0649 6.05209Z"
          fill="url(#paint0_linear_17733_266459)"/>
    <path fill-rule="evenodd" clip-rule="evenodd"
          d="M6.51453e-06 8.82819C-0.00329481 7.29716 1.24857 6.05288 2.79623 6.04896C3.54233 6.047 4.25872 6.34027 4.78627 6.86281L10.7287 12.7413C11.8201 13.8269 11.8201 15.5806 10.7287 16.6662C9.6313 17.7452 7.85849 17.7452 6.76113 16.6662L5.61028 15.5277V25.226C5.60566 26.7563 4.35248 27.9954 2.80547 28C1.25847 27.9961 0.00462837 26.7563 6.51453e-06 25.226V8.82819Z"
          fill="#FABF00"/>
    <defs>
        <linearGradient id="paint0_linear_17733_266459" x1="19.0933" y1="25.6028" x2="19.7725" y2="-5.445"
                        gradientUnits="userSpaceOnUse">
            <stop stop-color="#0092A1"/>
            <stop offset="1" stop-color="#009C4D"/>
        </linearGradient>
    </defs>
</svg>
