<?xml version="1.0" encoding="UTF-8" standalone="no"?>
<svg
   width="24.455879"
   height="4.9494858"
   viewBox="0 0 24.455879 4.9494858"
   fill="none"
   version="1.1"
   id="svg3"
   xml:space="preserve"
   xmlns="http://www.w3.org/2000/svg"
   xmlns:svg="http://www.w3.org/2000/svg"><defs
     id="defs3" /><path
     style="fill:#f2f2f2;fill-opacity:1;stroke-width:0.0449557"
     d="M -1.8252199e-8,2.5935266 V 0.23991758 L 0.11024785,0.12096358 0.22048463,0.00201058 h 0.60045603 c 0.41139774,0 0.62347824,0.01769 0.67357504,0.0562 0.072703,0.05587 0.2257877,0.36501 0.8404015,1.69707602 0.1768304,0.383247 0.4369234,0.943966 0.5779815,1.246041 l 0.2564722,0.549229 0.067449,-0.09675 c 0.037092,-0.05323 0.1342911,-0.249798 0.2160028,-0.436841 0.081689,-0.187041 0.2112338,-0.471572 0.2878234,-0.632288 0.076612,-0.160716 0.1940127,-0.413592 0.260932,-0.561946 0.066898,-0.148354 0.2121059,-0.461919 0.3226518,-0.696812 0.1105349,-0.23489302 0.2597619,-0.55571002 0.3316156,-0.71292302 0.071865,-0.157215 0.1708527,-0.313998 0.2199769,-0.348407 0.1063068,-0.07444 1.1934408,-0.08967 1.3262968,-0.01855 0.1699695,0.09096 0.1815938,0.258433 0.1815938,2.61508602 v 2.286031 H 5.7992905 5.2148676 l -0.00331,-1.607165 -0.00331,-1.607166 -0.2103728,0.431943 c -0.1157122,0.237568 -0.3258422,0.682629 -0.4669554,0.989025 -0.6064128,1.316664 -0.7612256,1.635894 -0.8304078,1.712337 -0.061046,0.06743 -0.1463127,0.08103 -0.5080762,0.08103 H 2.7576774 L 2.6627413,4.8460066 C 2.6108349,4.7903556 2.5045611,4.6032326 2.4268644,4.4301536 2.3491698,4.2570736 2.1860567,3.9097146 2.0643899,3.6582416 1.9427243,3.4067706 1.843179,3.1903176 1.843179,3.1772366 c 0,-0.02087 -0.3833682,-0.849028 -0.6270317,-1.354512 l -0.08668,-0.179823 -0.00276,1.652121 -0.00276,1.65212 H 0.56200236 5.6281748e-5 Z M 7.4209502,4.8286806 7.3277802,4.7102296 V 2.4664656 0.22270158 l 0.1103912,-0.110348 0.1103914,-0.110346 h 2.2498305 c 1.2373987,0 2.2498207,0.01235 2.2498207,0.02744 0,0.01509 -0.105867,0.247739 -0.235223,0.516991 L 11.577758,1.0359916 H 10.01476 8.4517626 v 0.471403 0.471402 l 1.4267757,0.01187 1.4267747,0.01187 0.0022,0.440722 c 9.49e-4,0.242399 -0.0099,0.459572 -0.02417,0.482611 -0.01479,0.024 -0.620213,0.04697 -1.4172707,0.0538 l -1.3913836,0.0119 -0.012806,0.460277 -0.012806,0.46028 1.7885603,0.01176 1.78855,0.01176 0.0127,0.505751 0.0127,0.505751 H 9.7831153 7.5146393 Z m 5.4568098,0.0081 -0.110392,-0.110348 V 2.4826716 0.23890858 l 0.09317,-0.118452 0.09317,-0.118451 h 2.379398 c 1.694837,0 2.379385,0.01418 2.379385,0.04926 0,0.02709 -0.02947,0.10295 -0.06546,0.168582 -0.03599,0.06563 -0.135827,0.276109 -0.221854,0.467733 L 17.268752,1.0359876 h -1.688766 -1.688768 v 1.43858 1.438581 h 1.348674 1.348673 v -0.472062 -0.472035 h -0.921591 c -0.506873,0 -0.921591,-0.01424 -0.921591,-0.03165 0,-0.01741 0.09108,-0.218776 0.202303,-0.447495 0.111263,-0.228719 0.202292,-0.437011 0.202292,-0.462868 0,-0.03164 0.426452,-0.04701 1.303722,-0.04701 h 1.30371 v 1.34522 1.34522 l -0.11638,0.138298 -0.116386,0.138317 h -2.26831 -2.26831 z m 5.374237,0.09159 c 0,-0.03131 0.157087,-0.384612 0.371434,-0.835406 0.111683,-0.234894 0.338515,-0.720415 0.504057,-1.078937 1.133466,-2.45477602 1.310711,-2.81259802 1.445785,-2.91884502 l 0.118461,-0.09318 h 0.64803 c 0.471129,0 0.681634,0.01739 0.771172,0.06369 0.123594,0.06392 0.170279,0.15234 0.946507,1.79260902 0.126276,0.266829 0.229591,0.495144 0.229591,0.507367 0,0.01222 0.119511,0.269314 0.265581,0.571314 0.420083,0.868519 0.903265,1.921036 0.903265,1.967584 0,0.07012 -1.002143,0.05328 -1.100292,-0.01849 -0.04592,-0.03358 -0.16668,-0.251054 -0.268351,-0.483273 l -0.18485,-0.422217 -1.533071,-0.01182 -1.533071,-0.01182 -0.07077,0.149074 c -0.03886,0.08199 -0.130836,0.283022 -0.20429,0.446735 -0.07341,0.163713 -0.174219,0.319423 -0.223918,0.346022 -0.08334,0.04462 -1.085301,0.07195 -1.085301,0.02961 z m 4.119529,-2.068718 c -0.03941,-0.06018 -0.160145,-0.308 -0.26825,-0.550708 -0.108074,-0.242707 -0.285076,-0.628413 -0.393281,-0.857125 l -0.19674,-0.415856 h -0.148719 -0.148708 l -0.262631,0.550683 c -0.340415,0.713828 -0.633239,1.345558 -0.633239,1.366132 0,0.009 0.477741,0.01626 1.061634,0.01626 h 1.061622 z"
     id="path13" /></svg>
