<?xml version="1.0" encoding="UTF-8" standalone="no"?>
<svg
   width="24.8664"
   height="21.95105"
   viewBox="0 0 24.8664 21.95105"
   fill="none"
   version="1.1"
   id="svg3"
   xmlns="http://www.w3.org/2000/svg"
   xmlns:svg="http://www.w3.org/2000/svg">
  <path
     fill-rule="evenodd"
     clip-rule="evenodd"
     d="m 22.0649,0.00313985 c 1.5476,0.00196 2.8002,1.24494005 2.7982,2.77596005 L 24.8664,19.17685 c -0.0046,1.5304 -1.2578,2.7695 -2.8048,2.774 -1.547,-0.0045 -2.8002,-1.2436 -2.8048,-2.774 V 9.4779499 L 18.1053,10.61715 c -1.0974,1.079 -2.8696,1.079 -3.9669,0 -1.0908,-1.0856001 -1.0908,-2.8394001 0,-3.9249001 l 5.9424,-5.87853005 c 0.5262,-0.51992 1.2399,-0.81189 1.9841,-0.81058 z"
     fill="url(#paint0_linear_17733_266459)"
     id="path1"
     style="fill:url(#paint0_linear_17733_266459)" />
  <path
     fill-rule="evenodd"
     clip-rule="evenodd"
     d="M 6.514515e-6,2.7792399 C -0.00329481,1.2482099 1.24857,0.00392985 2.79623,9.8585089e-6 3.54233,-0.00195015 4.25872,0.29131985 4.78627,0.81385985 L 10.7287,6.6923499 c 1.0914,1.0856 1.0914,2.8393 0,3.9249001 -1.0974,1.079 -2.87021,1.079 -3.96757,0 L 5.61028,9.4787499 V 19.17705 c -0.00462,1.5303 -1.2578,2.7694 -2.80481,2.774 -1.547,-0.0039 -2.80084163,-1.2437 -2.805463485485,-2.774 z"
     fill="#fabf00"
     id="path2" />
  <defs
     id="defs3">
    <linearGradient
       id="paint0_linear_17733_266459"
       x1="19.0933"
       y1="25.6028"
       x2="19.772499"
       y2="-5.4450002"
       gradientUnits="userSpaceOnUse"
       gradientTransform="translate(0,-6.0489501)">
      <stop
         stop-color="#0092A1"
         id="stop2" />
      <stop
         offset="1"
         stop-color="#009C4D"
         id="stop3" />
    </linearGradient>
  </defs>
</svg>
