<?xml version="1.0" encoding="UTF-8" standalone="no"?>
<svg
   width="20.226501"
   height="22.280619"
   viewBox="0 0 20.226501 22.280619"
   fill="none"
   version="1.1"
   id="svg3"
   xml:space="preserve"
   xmlns="http://www.w3.org/2000/svg"
   xmlns:svg="http://www.w3.org/2000/svg"><defs
     id="defs3" /><path
     style="fill:#f8f8f8;fill-opacity:1;stroke-width:0.178995"
     d="M 3.4009169,20.44808 V 18.615542 H 1.7004584 -1.5654876e-7 V 9.3077708 -4.5137584e-8 H 10.113252 20.226503 V 9.3077708 18.615542 H 14.04059 c -4.8999096,0 -6.1584256,-0.04652 -6.0537006,-0.223745 0.07272,-0.123061 0.327594,-0.545937 0.566398,-0.939727 0.291611,-0.480868 -0.483065,0.194372 -2.3590909,2.056284 l -2.7932796,2.772265 z m 7.2228021,-5.992493 c 0.983425,-0.290306 2.313534,-1.556016 2.817779,-2.681359 0.60159,-1.342596 0.60159,-3.5903192 0,-4.9329142 -1.441926,-3.217997 -5.8508016,-4.031171 -8.5643796,-1.579616 -1.9186711,1.733405 -2.1724106,5.3210262 -0.528751,7.4760102 1.4023639,1.838624 3.718481,2.472661 6.2753516,1.717879 z M 7.8262384,12.682931 C 6.3263488,12.350923 5.3698687,11.036676 5.3698687,9.3077708 c 0,-1.770922 0.9444825,-3.03093 2.5399547,-3.388483 2.1471356,-0.481183 3.9038856,1.023016 3.9038856,3.342662 0,2.4804672 -1.689226,3.9297092 -3.9874706,3.4209812 z m 9.3573386,1.09973 v -0.894978 h -0.894978 -0.894977 v 0.894978 0.894977 h 0.894977 0.894978 z m 0.002,-5.3251202 c 0.0011,-1.747444 0.05189,-3.479226 0.11292,-3.848405 l 0.110947,-0.671233 h -1.00791 -1.007895 l 0.002,3.177171 c 0.0011,1.747446 0.05189,3.4792282 0.112921,3.8484052 l 0.110947,0.671235 h 0.782058 0.782061 z"
     id="path13" /></svg>
