<?xml version="1.0" encoding="UTF-8" standalone="no"?>
<!-- Created with Inkscape (http://www.inkscape.org/) -->

<svg
   width="15.676335mm"
   height="15.293861mm"
   viewBox="0 0 15.676336 15.293861"
   version="1.1"
   id="svg1"
   xml:space="preserve"
   xmlns="http://www.w3.org/2000/svg"
   xmlns:svg="http://www.w3.org/2000/svg"><defs
     id="defs1" /><g
     id="layer1"
     transform="translate(-0.46527224,-4.221737)"
     style="fill:#e4e4e4;fill-opacity:1"><path
       style="fill:#e4e4e4;fill-opacity:1;stroke-width:0.175092"
       d="M 7.3780002,19.468512 C 6.8443812,19.38836 6.2869308,19.397447 5.8530815,19.16016 5.3481539,19.075929 4.925361,18.942521 4.5195213,18.694597 4.1072226,18.560023 3.7801721,18.317105 3.4402569,18.101922 3.2082737,17.859499 2.8575867,17.760377 2.6786258,17.450617 2.3814514,17.224863 2.1529621,16.967605 1.9448962,16.630168 1.620776,16.247774 1.4193626,15.900766 1.216599,15.456368 0.9690587,15.119721 0.96418266,14.634775 0.72175087,14.3186 0.68729963,13.665535 0.40761707,13.061597 0.47599468,12.391528 0.45719377,11.643357 0.46295612,10.890882 0.69500534,10.181528 0.77786413,9.7073115 0.92527406,9.1739234 1.1992377,8.7787014 1.3254951,8.2857974 1.6489828,7.9071573 1.8883446,7.4699749 2.175021,7.2626569 2.2147342,6.8858496 2.5406457,6.6948995 2.737289,6.4656212 2.9722743,6.2273564 3.2086289,6.0369714 3.6692053,5.7382944 4.004301,5.3504946 4.5112837,5.1890479 4.7642441,4.8791112 5.2738113,4.9377663 5.5365523,4.6342058 6.0716736,4.5272029 6.5709915,4.4228746 7.0508541,4.2604066 c 0.8013034,-0.051559 1.613474,-0.051559 2.4147775,-2.9e-6 0.4341662,0.2280678 1.1302854,0.1599005 1.5220234,0.4603751 0.483406,0.054533 0.830522,0.3619827 1.273366,0.539127 0.267168,0.2684517 0.691393,0.3538369 0.907828,0.6581281 0.266519,0.1942987 0.580759,0.344316 0.761631,0.6513248 0.24643,0.2114144 0.430158,0.5342702 0.651312,0.7616389 0.165144,0.3106304 0.461637,0.6045533 0.592705,0.9388382 0.246208,0.3655931 0.346808,0.7967372 0.551162,1.1559951 0.203102,0.5173538 0.224852,1.1128241 0.378173,1.6913951 0.0518,0.750917 0.07587,1.521633 -0.10125,2.251242 -0.0499,0.537153 -0.19298,0.98566 -0.37844,1.421123 -0.133609,0.415119 -0.352885,0.830594 -0.581821,1.17856 -0.175577,0.31928 -0.375335,0.588505 -0.576339,0.859778 -0.267966,0.231256 -0.393093,0.661097 -0.756226,0.77525 -0.337513,0.261968 -0.574274,0.554904 -0.911508,0.753507 -0.393115,0.173528 -0.753219,0.416602 -1.158153,0.5559 -0.444442,0.197196 -1.049024,0.291428 -1.528779,0.44009 -0.595365,0.114251 -1.2751401,0.171281 -1.913849,0.161932 -0.2718526,-0.01175 -0.5541109,0.01855 -0.8194668,-0.0461 z M 6.7294263,17.267995 c 0.4281709,-0.1875 0.7343134,-0.616676 0.7812178,-1.082169 0.011266,-0.496227 0.00448,-0.992648 0.00634,-1.488966 C 6.2044391,14.69006 4.8910254,14.71573 3.5792169,14.67039 3.918512,14.459678 3.9620496,14.020773 4.300015,13.842568 4.4480672,13.480331 4.7388017,13.196481 4.963983,12.890136 5.1960343,12.487852 5.5454887,12.129786 5.6823617,11.670437 5.9441669,11.420568 6.06455,11.077293 6.2661447,10.78227 6.4720578,10.449781 6.6292462,10.06418 6.8618161,9.7522292 7.0383365,9.3066188 7.2876577,8.9704326 7.4474817,8.5354309 7.6914803,8.1434051 7.7656803,7.6430317 8.0091749,7.2961934 8.1093337,6.9517093 8.3506294,5.8964813 8.3872947,6.8097635 c 0.1911279,0.3953856 0.3648442,0.7961637 0.519432,1.216075 0.1562766,0.4294255 0.4408246,0.8245886 0.5732738,1.2624011 0.2750158,0.4043024 0.4512384,0.8348054 0.7238365,1.2833514 0.181014,0.312215 0.386828,0.656364 0.588645,0.949141 0.215341,0.355805 0.429091,0.784952 0.707615,1.137752 0.213555,0.310934 0.392041,0.629453 0.675368,0.854284 0.10303,0.36451 0.435338,0.535295 0.622638,0.836624 0.61506,0.579427 -0.785171,0.250034 -1.161166,0.346266 -0.854678,0.0072 -1.7105161,-0.01093 -2.5643465,0.0293 -0.1168716,0.586592 -0.1574591,1.399774 0.1398156,1.902156 0.072412,0.393931 0.4389698,0.573277 0.7873289,0.697096 0.616623,0.0619 1.186742,-0.0029 1.72733,-0.20478 0.361113,-0.129096 0.719049,-0.309818 0.978361,-0.592675 0.311716,-0.188882 0.556992,-0.502944 0.761644,-0.79031 0.214918,-0.309324 0.464578,-0.606088 0.581821,-0.99326 0.227446,-0.366175 0.280674,-0.884033 0.473958,-1.264418 0.103417,-0.619591 0.236612,-1.214029 0.156106,-1.87122 C 14.652213,10.954106 14.423553,10.44373 14.310914,9.828694 14.042094,9.521203 13.970918,9.0440821 13.698219,8.7394241 13.445614,8.3795781 13.261609,8.0016207 12.937058,7.7445466 12.706321,7.4958209 12.482976,7.2358261 12.216251,7.0396073 11.906423,6.8295135 11.658469,6.6126477 11.338805,6.4507092 10.903646,6.2110363 10.416066,6.0330521 9.9423936,5.8716252 9.125039,5.6461179 8.2468893,5.7091026 7.3968376,5.7281893 6.8365672,5.7541963 6.4429715,5.978017 5.9498178,6.0937257 5.5693635,6.2939169 5.1812276,6.444726 4.8530303,6.6823652 4.5641287,6.869459 4.2711909,7.0823634 4.0276616,7.3105263 3.6515021,7.5466809 3.44359,7.9453931 3.1621096,8.2343084 2.9514871,8.5410792 2.7516186,8.8387468 2.573488,9.178503 2.3674309,9.6002321 2.2208584,10.109956 2.0534885,10.540355 c -0.137812,0.715674 -0.17334,1.456618 -0.1204359,2.214741 -0.00919,0.596388 0.2517631,1.038179 0.3662408,1.582752 0.2956993,0.313274 0.3579124,0.795093 0.6311942,1.123413 0.2376344,0.34526 0.4776322,0.745052 0.8655093,1.016434 0.2657158,0.270011 0.6565552,0.434938 0.9875396,0.628144 0.5638416,0.168525 1.1062447,0.294457 1.7353504,0.225089 0.063275,-0.01916 0.1805399,0.02089 0.2105394,-0.06293 z"
       id="path1" /></g></svg>
